<?xml version="1.0" encoding="UTF-8" standalone="no"?>
<svg width="28px" height="21px" viewBox="0 0 28 21" version="1.1" xmlns="http://www.w3.org/2000/svg" xmlns:xlink="http://www.w3.org/1999/xlink" xmlns:sketch="http://www.bohemiancoding.com/sketch/ns">
    <!-- Generator: Sketch 3.2.2 (9983) - http://www.bohemiancoding.com/sketch -->
    <title>Imported Layers</title>
    <desc>Created with Sketch.</desc>
    <defs></defs>
    <g id="Page-1" stroke="none" stroke-width="1" fill="none" fill-rule="evenodd" sketch:type="MSPage">
        <g id="Logged-Out-Homepage" sketch:type="MSArtboardGroup" transform="translate(-1122.000000, -3717.000000)" fill="#444B52">
            <g id="Footer" sketch:type="MSLayerGroup" transform="translate(0.000000, 3678.000000)">
                <g id="Social-Icons" transform="translate(1112.000000, 25.490925)" sketch:type="MSShapeGroup">
                    <g id="Twitter">
                        <path d="M34.8444089,18.456193 C36.0180988,17.8181934 36.9188377,15.4248821 37.3438616,14.2218644 C36.2455581,14.811602 35.0276761,15.2412512 33.7318079,15.4707898 C32.6945935,14.4702369 31.216758,13.8451857 29.5803508,13.8451857 C26.4401127,13.8451857 23.8938683,16.1511658 23.8938683,18.9950902 C23.8938683,19.4000199 23.9432595,19.7920012 24.040742,20.1686799 C19.3134879,19.9532668 15.1230377,17.903899 12.3181396,14.7868825 C11.8281273,15.5496569 11.5473775,16.4336748 11.5473775,17.3777259 C11.5473775,19.1634185 12.550798,20.7407607 14.0780247,21.6636236 C13.1460915,21.637727 12.2687484,21.4058341 11.5018857,21.0209156 L11.5018857,21.0844801 C11.5018857,23.582331 13.4619349,25.6623038 16.0640693,26.1355065 C15.5870547,26.2555729 15.0840447,26.3167831 14.5654375,26.3167831 C14.1989031,26.3167831 13.8427668,26.286178 13.4957289,26.2249677 C14.2183996,28.2708041 16.3188237,29.7610393 18.8078784,29.8010614 C16.8608268,31.1830016 14.4094654,32.0058092 11.7436424,32.0058092 C11.2848245,32.0058092 10.8325054,31.9834439 10.387985,31.9340048 C12.9043347,33.394812 15.8950996,34.2470476 19.1068249,34.2470476 C29.5686529,34.2470476 35.2876296,26.3991816 35.2876296,19.5930677 C35.2876296,19.3682376 35.2824305,19.1457617 35.2720323,18.9268172 C36.3833335,18.2005335 37.3490607,17.2929732 38.1094246,16.260638 C37.0891072,16.6702762 35.9934033,18.3325953 34.8444089,18.456193 Z" id="Imported-Layers"></path>
                    </g>
                </g>
            </g>
        </g>
    </g>
</svg>