<?xml version="1.0" encoding="UTF-8" standalone="no"?>
<svg width="159px" height="68px" viewBox="0 0 159 68" version="1.1" xmlns="http://www.w3.org/2000/svg" xmlns:xlink="http://www.w3.org/1999/xlink" xmlns:sketch="http://www.bohemiancoding.com/sketch/ns">
    <!-- Generator: Sketch 3.2.2 (9983) - http://www.bohemiancoding.com/sketch -->
    <title>TC Logo</title>
    <desc>Created with Sketch.</desc>
    <defs></defs>
    <g id="Page-1" stroke="none" stroke-width="1" fill="none" fill-rule="evenodd" sketch:type="MSPage">
        <g id="Logged-Out-Homepage" sketch:type="MSArtboardGroup" transform="translate(-42.000000, -28.000000)" fill="#FF5D3B">
            <g id="Main-Nav" sketch:type="MSLayerGroup" transform="translate(0.000000, 1.000000)">
                <g id="TC-Logo" transform="translate(43.000000, 28.000000)" sketch:type="MSShapeGroup">
                    <path d="M10.5922142,13.1830136 L17.2670338,13.1830136 L17.2670338,9.40712805 L0.0199554265,9.40712805 L0.0199554265,13.1830136 L6.84148556,13.1830136 L6.84148556,49.4673594 L10.5922142,49.4673594 L10.5922142,13.1830136" id="Fill-1"></path>
                    <path d="M27.7967971,35.4442418 C29.1121322,28.8252407 30.1350582,23.4801427 31.3046946,17.8407538 L34.9582908,35.4442418 L27.7967971,35.4442418 L27.7967971,35.4442418 Z M41.7788091,49.4673594 L33.447679,9.40712805 L29.1121322,9.40712805 L21.0734112,49.4673594 L24.9708503,49.4673594 L27.1634127,38.9248181 L35.5916752,38.9248181 L37.8813701,49.4673594 L41.7788091,49.4673594 L41.7788091,49.4673594 Z" id="Fill-2"></path>
                    <path d="M52.1132957,17.9395296 C52.1132957,15.3896867 54.3544244,13.1830136 57.2775037,13.1830136 C60.0548843,13.1830136 62.4427234,15.2919292 62.4427234,17.9395296 L62.4427234,21.9598091 L66.193452,21.9598091 L66.193452,17.9395296 C66.193452,13.2318924 62.2474467,9.40712805 57.2775037,9.40712805 C52.3085724,9.40712805 48.3129891,13.2318924 48.3129891,17.9395296 L48.3129891,23.8233125 C48.3129891,28.2855375 52.4542711,31.6194775 57.1803712,31.6194775 C59.9577519,31.6194775 62.3931454,33.1398111 62.3931454,35.395363 L62.3931454,41.1314912 C62.3931454,43.6823524 60.1520167,45.8880073 57.2775037,45.8880073 C54.4525686,45.8880073 52.0647295,43.6823524 52.0647295,41.1314912 L52.0647295,37.2588664 L48.3129891,37.2588664 L48.3129891,41.1314912 C48.3129891,45.8391285 52.3085724,49.6638928 57.2775037,49.6638928 C62.1503143,49.6638928 66.193452,45.8391285 66.193452,41.1314912 L66.193452,35.395363 C66.193452,31.0807926 61.8579052,28.2855375 57.3756479,27.9423678 C54.549701,27.7947131 52.1132957,26.2743795 52.1132957,23.8233125 L52.1132957,17.9395296" id="Fill-3"></path>
                    <path d="M83.2998907,13.1830136 L89.9747104,13.1830136 L89.9747104,9.40712805 L72.727632,9.40712805 L72.727632,13.1830136 L79.5491621,13.1830136 L79.5491621,49.4673594 L83.2998907,49.4673594 L83.2998907,13.1830136" id="Fill-4"></path>
                    <path d="M125.942043,49.4673594 L129.352808,49.4673594 L129.352808,9.40712805 L125.601067,9.40712805 L125.601067,38.3372545 L115.174507,9.40712805 L111.033225,9.40712805 L111.033225,49.4673594 L114.784966,49.4673594 L114.784966,19.4598633 L125.942043,49.4673594 Z" id="Fill-5"></path>
                    <path d="M147.823148,49.8105292 C152.49967,49.8105292 156.787662,46.3289346 156.787662,41.7200732 L156.787662,28.1867617 L148.06699,28.1867617 L148.06699,31.5705987 L153.035922,31.5705987 L153.035922,41.7200732 C153.035922,44.2699161 150.502384,46.1334195 147.823148,46.1334195 C144.656225,46.1334195 141.68458,44.2699161 141.68458,41.7200732 L141.68458,17.8407538 C141.68458,15.340808 144.559093,13.1830136 147.823148,13.1830136 C150.599516,13.1830136 153.035922,15.340808 153.035922,17.8407538 L153.035922,23.6267791 L156.787662,23.6267791 L156.787662,17.8407538 C156.787662,13.1830136 152.694946,9.40712805 147.823148,9.40712805 C142.512229,9.40712805 137.884273,13.1830136 137.884273,17.8407538 L137.884273,41.7200732 C137.884273,46.3289346 142.65894,49.8105292 147.823148,49.8105292" id="Fill-6"></path>
                    <path d="M33.4851155,65.8682259 C34.8247337,65.8682259 35.9022967,64.83668 35.9022967,63.5678684 L35.9022967,62.8010826 L34.6274334,62.8010826 L34.6274334,63.5678684 C34.6274334,64.1228462 34.1023112,64.598396 33.4851155,64.598396 C32.7353745,64.598396 32.0787187,64.1228462 32.0787187,63.5678684 L32.0787187,57.2737075 C32.0787187,56.7187297 32.7353745,56.2421616 33.4851155,56.2421616 C34.1023112,56.2421616 34.6274334,56.7187297 34.6274334,57.2737075 L34.6274334,57.9875413 L35.9022967,57.9875413 L35.9022967,57.2737075 C35.9022967,56.0048959 34.8247337,54.97335 33.4851155,54.97335 C32.052412,54.97335 30.8048673,56.0048959 30.8048673,57.2737075 L30.8048673,63.5678684 C30.8048673,64.83668 32.052412,65.8682259 33.4851155,65.8682259" id="Fill-7" stroke="#FF5D3B" stroke-width="0.8"></path>
                    <path d="M44.5268477,64.6126523 C43.8044252,64.6126523 43.1477694,64.2155122 43.1477694,63.6737724 L43.1477694,57.1545655 C43.1477694,56.6128257 43.8044252,56.2156856 44.5268477,56.2156856 C45.2634353,56.2156856 45.9069377,56.6128257 45.9069377,57.1545655 L45.9069377,63.6737724 C45.9069377,64.2155122 45.2634353,64.6126523 44.5268477,64.6126523 L44.5268477,64.6126523 Z M47.1676358,57.1545655 C47.1676358,55.9122299 45.9332444,54.97335 44.5268477,54.97335 C43.1477694,54.97335 41.8870713,55.9122299 41.8870713,57.1545655 L41.8870713,63.6737724 C41.8870713,64.916108 43.1477694,65.8549879 44.5268477,65.8549879 C45.9332444,65.8549879 47.1676358,64.916108 47.1676358,63.6737724 L47.1676358,57.1545655 L47.1676358,57.1545655 Z" id="Fill-8" stroke="#FF5D3B" stroke-width="0.8"></path>
                    <path d="M56.7918415,64.5067483 L54.5456539,64.5067483 L54.5456539,54.97335 L53.283944,54.97335 L53.283944,65.7755599 L56.7918415,65.7755599 L56.7918415,64.5067483" id="Fill-9" stroke="#FF5D3B" stroke-width="0.8"></path>
                    <path d="M66.1135201,64.5067483 L63.8673325,64.5067483 L63.8673325,54.97335 L62.6056226,54.97335 L62.6056226,65.7755599 L66.1135201,65.7755599 L66.1135201,64.5067483" id="Fill-10" stroke="#FF5D3B" stroke-width="0.8"></path>
                    <path d="M71.8888529,54.97335 L71.8888529,65.7755599 L76.0139461,65.7755599 L76.0139461,64.5067483 L73.149551,64.5067483 L73.149551,61.1616069 L75.6588056,61.1616069 L75.6588056,59.891777 L73.149551,59.891777 L73.149551,56.2421616 L76.0139461,56.2421616 L76.0139461,54.97335 L71.8888529,54.97335" id="Fill-11" stroke="#FF5D3B" stroke-width="0.8"></path>
                    <path d="M84.5737421,65.8682259 C85.9133603,65.8682259 86.9909233,64.83668 86.9909233,63.5678684 L86.9909233,62.8010826 L85.7170719,62.8010826 L85.7170719,63.5678684 C85.7170719,64.1228462 85.1909378,64.598396 84.5737421,64.598396 C83.8250129,64.598396 83.1683572,64.1228462 83.1683572,63.5678684 L83.1683572,57.2737075 C83.1683572,56.7187297 83.8250129,56.2421616 84.5737421,56.2421616 C85.1909378,56.2421616 85.7170719,56.7187297 85.7170719,57.2737075 L85.7170719,57.9875413 L86.9909233,57.9875413 L86.9909233,57.2737075 C86.9909233,56.0048959 85.9133603,54.97335 84.5737421,54.97335 C83.1420505,54.97335 81.893494,56.0048959 81.893494,57.2737075 L81.893494,63.5678684 C81.893494,64.83668 83.1420505,65.8682259 84.5737421,65.8682259" id="Fill-12" stroke="#FF5D3B" stroke-width="0.8"></path>
                    <path d="M95.6954062,56.2421616 L97.3770115,56.2421616 L97.3770115,54.97335 L92.7267961,54.97335 L92.7267961,56.2421616 L94.4336963,56.2421616 L94.4336963,65.7755599 L95.6954062,65.7755599 L95.6954062,56.2421616" id="Fill-13" stroke="#FF5D3B" stroke-width="0.8"></path>
                    <path d="M103.37494,54.97335 L104.636649,54.97335 L104.636649,65.7755599 L103.37494,65.7755599 L103.37494,54.97335 Z" id="Fill-14" stroke="#FF5D3B" stroke-width="0.8"></path>
                    <path d="M110.516197,54.97335 L112.486165,65.7755599 L114.141463,65.7755599 L116.072982,54.97335 L114.785977,54.97335 L113.314826,62.9853963 L111.803202,54.97335 L110.516197,54.97335" id="Fill-15" stroke="#FF5D3B" stroke-width="0.8"></path>
                    <path d="M121.87361,54.97335 L121.87361,65.7755599 L125.999715,65.7755599 L125.999715,64.5067483 L123.13532,64.5067483 L123.13532,61.1616069 L125.644574,61.1616069 L125.644574,59.891777 L123.13532,59.891777 L123.13532,56.2421616 L125.999715,56.2421616 L125.999715,54.97335 L121.87361,54.97335" id="Fill-16" stroke="#FF5D3B" stroke-width="0.8"></path>
                    <path d="M156.78665,0.49082439 L156.78665,1.51320549 L0.0199554265,1.51320549 L0.0199554265,0.49082439 L156.78665,0.49082439" id="Fill-17" stroke="#FF5D3B"></path>
                    <path d="M0.0199554265,59.9101066 L27.3394652,59.9101066 L27.3394652,60.9314694 L0.0199554265,60.9314694 L0.0199554265,59.9101066 Z M129.468152,59.9101066 L156.78665,59.9101066 L156.78665,60.9314694 L129.468152,60.9314694 L129.468152,59.9101066 Z" id="Fill-18" stroke="#FF5D3B"></path>
                    <path d="M100.114932,9.40712805 C99.4461348,9.40712805 98.4586217,10.1627125 97.901122,10.9651391 C96.1274432,13.5170186 94.6653977,20.5484344 96.9530689,23.3935866 C98.5871198,25.4271474 99.2377048,24.0666881 99.1982447,27.400628 C99.1517021,31.4219258 98.8653638,35.2161409 98.4292796,39.1885598 C98.1581182,41.6630479 97.7017981,45.364597 98.3321472,47.8024261 C98.5770019,48.7525073 99.0717702,49.4673594 100.114932,49.4673594 C101.157082,49.4673594 101.651851,48.7525073 101.897717,47.8024261 C102.528066,45.364597 102.070734,41.6630479 101.799573,39.1885598 C101.3645,35.2161409 101.078162,31.4219258 101.030608,27.400628 C100.991148,24.0666881 101.642744,25.4271474 103.275784,23.3935866 C105.563455,20.5484344 104.102421,13.5170186 102.32773,10.9651391 C101.770231,10.1627125 100.782718,9.40712805 100.114932,9.40712805" id="Fill-19"></path>
                </g>
            </g>
        </g>
    </g>
</svg>