<?xml version="1.0" encoding="UTF-8" standalone="no"?>
<svg width="127px" height="107px" viewBox="0 0 127 107" version="1.1" xmlns="http://www.w3.org/2000/svg" xmlns:xlink="http://www.w3.org/1999/xlink" xmlns:sketch="http://www.bohemiancoding.com/sketch/ns">
    <!-- Generator: Sketch 3.2.2 (9983) - http://www.bohemiancoding.com/sketch -->
    <title>Cork Screw Illustration</title>
    <desc>Created with Sketch.</desc>
    <defs></defs>
    <g id="Page-1" stroke="none" stroke-width="1" fill="none" fill-rule="evenodd" sketch:type="MSPage">
        <g id="Logged-Out-Homepage" sketch:type="MSArtboardGroup" transform="translate(-980.000000, -3571.000000)" fill="#FF5D3B">
            <g id="Section-4:-Top-Restaurants" sketch:type="MSLayerGroup" transform="translate(1.000000, 3206.000000)">
                <g id="Cork-Screw-Illustration" transform="translate(1045.486109, 427.165534) rotate(-50.000000) translate(-1045.486109, -427.165534) translate(1017.486109, 355.665534)" sketch:type="MSShapeGroup">
                    <path d="M48.3850243,4.74356599 C48.5984185,4.71115168 48.3174945,4.58959802 48.4336457,4.5571837 C48.5714066,4.54097655 48.5281875,4.70845049 48.5687054,4.78678507 C48.6659483,4.61660994 48.6551435,4.81649819 48.8469282,4.78678507 C48.563303,4.93805186 49.1629677,4.97046617 49.2602107,5.01638644 C49.3412464,5.05690433 49.3574536,5.19736634 49.4465929,5.248689 C49.6356764,5.35943789 49.9463136,5.39995578 50.1786161,5.52421064 C50.3190781,5.59714284 50.4001139,5.75381201 50.500058,5.79973228 C50.597301,5.84565255 50.7053487,5.79973228 50.7782809,5.84565255 C50.8025916,5.85915852 50.7593725,5.96450503 50.7782809,5.98341337 C50.9700655,6.1914052 51.537316,6.27784336 51.7453078,6.44261611 C51.7642162,6.45882326 51.7209971,6.56687097 51.7453078,6.58037693 C51.8236424,6.63440078 51.9478972,6.59388289 52.0208294,6.6289984 C52.1234748,6.67491867 52.1396819,6.82078307 52.2504308,6.90181884 C52.2882475,6.93153196 52.393594,6.87480692 52.4341119,6.90181884 C52.4557214,6.918026 52.4098012,7.0260737 52.4341119,7.04228086 C52.7366455,7.23946791 53.0850993,7.29079057 53.3552186,7.45556332 C53.7333855,7.68786588 53.9710905,8.10925192 54.3681658,8.28212824 C54.4600063,8.17948292 54.5788588,8.09844715 54.778747,8.09844715 C54.7436315,8.27402466 54.87599,8.27672585 54.9651293,8.33074971 C54.932715,8.56035107 54.9354162,8.54414392 54.9165079,8.78995244 C55.1326033,8.88179299 55.1596152,9.15731463 55.2379498,9.386916 C55.0920854,9.39772077 54.9651293,9.44093985 54.8273685,9.386916 C54.6463886,10.1621583 54.1925883,10.9914244 53.9521821,11.9638537 C53.908963,11.9989692 53.8468356,12.0124752 53.7657998,12.009774 C53.6739593,12.8120282 52.9338325,13.1901951 52.8014741,13.8952064 C52.5745739,14.0032541 52.6123906,14.3787198 52.3422714,14.4462497 C52.477331,14.9324643 51.804734,15.207986 51.8344472,15.8724793 C51.6021446,15.8076507 51.7074911,16.0831723 51.5130052,16.0561604 L51.5130052,16.3343832 C51.0916192,16.8908289 50.6000022,17.382446 50.3190781,18.0793536 C50.2380424,18.0739513 50.2218352,18.1387799 50.1326958,18.1279751 C49.8247599,18.9248269 49.4628001,19.7108739 48.8469282,20.3807697 C48.6146256,20.9210082 47.9906502,21.4180276 47.8366822,21.9447602 C47.2424198,22.3796522 47.0128184,23.1792052 46.4077513,23.6005912 L46.4077513,23.8301926 C45.9593533,24.0678975 45.8080866,24.5892277 45.4407244,24.7945183 L45.4407244,25.0241197 C44.8572668,25.6832107 44.5007094,26.5692018 43.8308136,27.1418547 C43.8794351,27.441687 43.3635073,27.511918 43.4202323,27.9684196 C42.7071175,28.5599808 42.4234923,29.5783304 41.6725608,30.1320748 C41.3349117,30.9829505 40.5299563,32.0067025 39.9708095,33.122295 C39.7222997,33.0493628 39.8222439,33.4923584 39.6493675,33.3491952 C39.47379,34.0244933 38.7606752,34.5458235 38.450038,35.2373288 C38.309576,35.2022133 38.3960142,35.3939979 38.2204367,35.3291693 C38.18262,35.4588265 38.2879665,35.4480218 38.2663569,35.5587707 C37.8557757,35.6911291 37.7639351,36.2610807 37.4857123,36.614937 C37.4262861,36.6932715 37.29933,36.6905704 37.2561109,36.7526978 C37.1507644,36.9012634 37.1966847,37.1092552 37.0265096,37.2146017 C36.8914499,37.2956375 36.6780557,37.2497172 36.5186854,37.3064423 C36.4052353,37.4252947 36.6213307,37.4766174 36.6132271,37.6278842 C36.3187971,38.1357084 35.6083835,37.6657009 35.1410772,37.8574855 C34.8331412,37.8061629 34.606241,37.849382 34.311811,38.0870869 C33.9390465,38.0006487 33.5554771,38.0438678 33.301565,38.2734692 C33.24484,38.2113418 33.161103,38.1816286 33.2556448,38.0870869 C33.0530553,38.1924334 32.7910396,38.2356525 32.65598,38.4085288 C32.7559241,38.4490467 32.6370717,38.7029588 32.7478206,38.7326719 C32.4966096,39.7186072 32.7910396,40.8314985 32.65598,41.4473704 C32.9179957,42.76015 32.5533347,43.8514318 32.65598,44.9400124 C32.4425858,45.1534066 32.6748884,45.4640438 32.4263786,45.5855974 C32.5587371,46.3635409 32.3318369,47.2900499 32.5182192,48.0220731 C32.4398846,48.0842006 32.515518,48.300296 32.3777572,48.300296 C32.5506335,49.1457692 32.2994226,49.8534817 32.3345381,50.4585488 C32.3102274,50.5584929 32.2616059,50.5584929 32.1967773,50.5071703 C32.0725224,51.0960303 32.2832154,52.1548977 31.4593517,52.0711608 C31.0082526,52.5006504 30.4166914,52.0441488 29.8953612,52.3466824 C30.0088113,52.5897897 29.9736958,53.1462354 29.8953612,53.4028487 C29.9736958,54.0619397 30.5544522,54.2186088 31.1379098,54.3725768 L31.1379098,54.6021782 C31.4836624,54.5130388 31.5079732,55.0289666 31.7834948,55.1532215 C31.7186662,55.2963847 31.786196,55.4881694 31.9185544,55.5665039 C31.8294151,55.9662804 31.4944672,56.1094436 31.5079732,56.4876106 C31.1865313,56.4849094 31.197336,56.8414668 30.9542287,56.9468133 C30.6165796,57.0953789 30.0898471,56.7685346 29.8953612,57.1764147 C29.8413374,57.3249803 30.046628,57.2115302 29.989903,57.3600958 C29.555011,58.3217203 29.5766205,59.3562771 29.8521421,59.9343323 C30.5571534,59.8938144 31.0028502,60.028874 31.4134314,60.1207146 C31.3756147,60.3476148 31.5917101,60.2638778 31.6889531,60.350316 C31.9752795,60.5907221 31.9833831,60.9526819 32.150857,61.3146417 C31.9536699,62.5517879 29.8089231,62.8867358 28.517753,62.3735092 C28.3448767,62.735469 28.3961993,63.2027753 28.517753,63.4782969 C29.0985094,63.3513409 29.4955847,63.2459944 29.989903,63.3405361 C30.2627234,63.7241055 30.7840536,63.8591651 31.1379098,64.167101 C31.3432004,64.7316503 31.4566505,64.9234349 31.4134314,65.5933307 C31.0973919,65.9850036 30.8542846,66.7116244 30.1735841,66.8817996 C29.6171384,66.9142139 28.9769557,66.9115127 28.517753,66.8358793 C28.250335,67.0060544 28.4367172,67.378819 28.3313707,67.6651454 C28.8283902,67.9784837 29.5928277,67.9352646 30.0358232,67.9865873 C30.2411139,68.2242923 30.5922689,68.3161328 30.8650893,68.4890091 C31.0325633,69.03465 30.9272168,69.4047134 31.1379098,69.7315577 C31.1703241,69.9692626 30.9947466,70.2717962 31.2297503,70.282601 C31.1595193,70.5365131 31.1487146,71.138879 31.3242921,71.4819305 C31.1325074,71.8925117 31.2972802,72.5380968 31.1379098,73.045921 C31.1217026,73.0999448 31.0055514,73.1836818 31.0028502,73.2269009 C30.9812406,73.410582 31.224348,73.6401833 31.0028502,73.7806453 C31.1784277,74.0075455 31.0271609,74.280366 31.0919895,74.6099115 C31.4161326,74.5234733 31.5160768,74.7341663 31.8294151,74.6990508 C31.8024032,74.9691701 31.9644747,75.0556082 32.150857,75.1123333 C32.5425299,74.5991067 32.5425299,73.6969084 32.7478206,72.9972995 C32.9747207,72.9648852 33.0287446,72.9648852 33.2556448,72.9972995 C33.9147357,73.5969642 34.984408,73.7806453 35.7380407,74.2857683 C35.6083835,74.6801425 35.2680332,74.8584212 35.1410772,75.2527953 C35.2896428,75.6120539 35.1140652,75.6984921 35.0951569,76.0793602 C36.2458649,76.4116069 37.4505968,76.7870727 38.4986595,77.3219088 C38.8741253,76.7816703 39.0253921,76.0091292 39.3252244,75.3905561 C39.4359733,75.4256716 39.5494234,75.4283728 39.6493675,75.3419346 C40.4030003,76.0658542 41.5320987,76.1847067 42.3613649,76.7708655 C42.1641778,77.2462754 41.8481383,77.605534 41.578019,78.0134141 C41.6779631,78.2943381 41.5942262,78.3618679 41.4429594,78.5185371 C41.5266964,78.629286 41.5645131,78.3807763 41.7157798,78.5185371 C41.6347441,78.6833098 41.8373335,78.6833098 41.7157798,78.8858993 C41.8049192,78.9453255 41.9021621,78.8507838 42.0372218,78.9318195 C42.0183134,79.1263054 42.2803291,79.2505603 42.0858432,79.3478032 C42.5828627,79.6179225 43.0393642,79.1425126 43.2797703,78.6562979 C43.3418978,78.7184253 43.4823598,78.7022182 43.6012122,78.7022182 C44.1927734,79.4720581 44.5682392,80.1770693 45.4407244,80.6335709 C45.3623898,80.6605828 45.4461268,80.8496663 45.351585,80.8631722 C45.3785969,81.0036342 45.6000947,80.9523116 45.6271067,81.0927736 C45.6649234,81.3007654 45.5217602,81.322375 45.4893458,81.462837 C44.9274978,81.5735859 44.5763428,81.897729 44.2467973,82.2434816 C44.4926058,82.9457917 44.4709963,83.4374087 44.4763986,84.4044357 C45.2597445,84.5665072 45.9917677,84.1154081 46.361831,84.7717979 C46.4185561,85.1607696 46.4293609,85.7010081 46.2240702,86.1521072 C46.248381,86.8247042 46.3861418,87.6647751 45.9485486,88.0834599 C45.7270508,87.8538586 45.2462385,88.1482885 45.1192825,88.0402408 C45.0517527,88.0618504 45.1192825,88.0861611 45.1679039,88.0834599 C44.6708845,88.1753005 44.4385819,88.0240337 43.9685744,88.0402408 C43.8551243,88.4022006 43.5958099,88.6561127 43.6012122,89.0045666 C43.6039134,89.1882477 43.752479,89.304399 43.7875945,89.4637693 C43.8092041,89.5691158 43.7362719,89.6744623 43.7416743,89.7852112 C43.7551802,90.230908 43.990184,90.6847084 44.1549567,91.1196004 C44.060415,91.1952338 44.1576579,91.4599506 44.0631162,91.535584 C44.1279448,91.6382293 44.0955305,91.8381176 44.2467973,91.8570259 C44.0739209,92.0515118 44.130646,92.4080692 44.3386378,92.5917503 C44.2467973,93.6019963 44.4088688,94.6743698 44.7087012,95.3064488 C44.5385261,96.0168625 45.211123,96.4841688 44.8437608,97.1918812 C44.846462,97.3269409 44.9518085,97.3620564 45.0301431,97.4214826 C44.8545656,98.5181668 44.8113465,100.476531 44.8923823,101.837932 C44.9058883,102.094546 44.8194501,102.326848 44.8437608,102.572657 C44.859968,102.721222 44.9545097,102.826569 44.9815216,102.98864 C45.1462944,103.885436 44.9274978,104.763324 45.1679039,105.471036 C45.4110113,106.189554 45.3191707,107.218708 45.4893458,108.137113 C45.6406126,108.971782 45.7837758,109.936108 45.5811864,111.127334 C45.5244613,111.275899 45.7324532,111.162449 45.6730269,111.313716 C45.5136566,113.123515 45.8675128,115.341194 45.4893458,117.291455 C45.58929,118.566418 45.5244613,119.99805 45.2597445,121.15416 C45.0733622,121.967219 45.1462944,122.796485 45.0301431,123.777018 C44.9653145,124.287544 44.7816334,124.884507 44.7519203,125.432849 C44.7276095,125.946076 44.4385819,126.480912 44.4304784,126.813159 C44.4304784,126.840171 44.5223189,126.95092 44.5223189,126.95092 C44.4385819,127.45064 44.0901281,127.885532 44.2467973,128.377149 C44.0955305,128.441978 44.0496102,128.606751 44.0631162,128.836352 C43.7632838,129.422511 43.4067264,130.011371 43.3743121,130.859545 C42.9151093,131.599672 42.7341294,132.609918 42.223604,133.296021 C42.3127434,133.490507 42.1290623,133.97402 41.9940027,133.941606 C41.4834773,135.705485 40.5245539,136.972344 39.7385069,138.541737 C39.5332163,138.846972 39.1847624,139.154908 39.2306827,139.462844 C39.0578064,139.484453 39.0794159,139.708652 38.8660217,139.692445 C38.2096319,140.867464 37.3263419,141.558969 36.3350043,142.358522 C35.7191324,142.35312 35.3841845,142.634044 35.0006151,142.863645 C34.8385436,142.890657 34.8898663,142.701573 34.7250935,142.728585 C34.7250935,142.420649 34.8061293,142.191048 34.9546949,142.03708 C34.8763603,142.007367 34.9573961,141.818283 34.8628543,141.807479 C35.2383201,141.191607 34.997914,140.15705 35.5057382,139.506063 C35.4868298,139.438533 35.4490131,139.524971 35.3706785,139.506063 C35.5381525,138.971226 35.6110847,138.060925 35.9676421,137.990694 C35.937929,137.942072 35.8595944,137.942072 35.8758015,137.850232 C35.9136182,137.599021 36.1837375,137.463961 36.1513232,137.020965 L36.289084,137.020965 C36.2863828,136.683316 36.5267889,136.229516 36.7482867,135.964799 C36.7509879,135.845947 36.7266772,135.659564 36.8428285,135.781118 C36.7617927,135.292202 37.2966288,134.730354 37.2561109,134.125287 C37.3857682,133.825455 37.6801982,133.449989 37.6234731,133.11234 C38.5229702,131.451106 38.3879106,129.722343 38.9578622,127.872026 C38.8038943,127.674839 39.0064837,127.596505 38.9578622,127.272362 C39.0470016,127.272362 39.0145873,127.148107 39.1415433,127.180521 C39.1334398,127.126497 39.0578064,127.142704 39.0037825,127.134601 C39.0632088,125.808315 39.7060926,124.943934 39.5521246,123.685178 C39.7844272,123.134135 39.8978773,122.46694 40.0140285,121.799745 C39.9762118,121.65118 40.1652953,121.734917 40.1544905,121.613363 C40.0275345,120.76789 40.3354704,119.384879 40.3813907,118.347621 C40.5569682,118.728489 40.4705301,118.269287 40.3813907,118.074801 C40.5083468,117.494044 40.581279,116.929495 40.5218527,116.324428 C40.5623706,116.246094 40.5191515,116.07862 40.6596136,116.094827 C40.5191515,115.570795 40.5515659,114.849577 40.5218527,114.209394 C40.511048,113.982494 40.4705301,113.715076 40.4759325,113.52059 C40.4894384,112.899316 40.6758207,112.267237 40.6596136,111.635158 C40.6244981,110.465541 40.6677171,109.328339 40.7028326,108.183034 C40.638004,108.010157 40.9108245,108.177631 40.8432946,107.999353 C40.8513982,107.823775 40.8027768,107.983145 40.7028326,107.956134 C40.6704183,103.969173 40.9648483,100.498141 40.3813907,97.2378015 C40.3597812,97.0649252 40.5974861,97.2972277 40.5218527,97.0082001 C40.4516217,96.8542322 40.4651277,97.1594669 40.3354704,97.1000407 C40.2760442,96.9136584 40.4192074,96.9379691 40.4759325,96.8704393 C40.3759883,96.89475 40.3462752,96.7704952 40.2436299,96.6867582 C40.2652394,96.1168066 39.8735665,95.590074 39.9708095,95.3523691 C39.7601164,95.0444331 39.5899413,94.6554614 39.417065,94.2016611 C39.3117185,94.1341313 39.333328,94.1044181 39.1874636,94.1557408 C39.249591,93.9558525 39.0794159,93.990968 39.0497028,93.8802192 C38.8957348,93.9099323 38.7984919,93.9990716 38.8201014,94.2016611 C38.7768823,94.1665456 38.7147549,94.1530396 38.6364203,94.1557408 C38.617512,94.2664897 38.7201573,94.2556849 38.6823406,94.3853422 C38.0502615,94.7310948 38.0799747,95.4550144 37.7180149,96.0411732 C37.7558316,96.122209 37.7315208,96.2707746 37.8071542,96.3166948 C37.5181266,96.6543439 37.7315208,97.0784311 37.3479515,97.4214826 C37.2777205,98.1967249 37.2263978,99.0476005 37.0724298,99.8606595 C37.0103024,100.184803 37.0049,100.533256 36.934669,100.824985 C36.850932,101.15183 36.6564462,101.413845 36.6132271,101.746092 C36.6024223,101.816323 36.6591474,101.902761 36.6564462,101.975693 C36.6429402,102.437597 36.3971317,103.023756 36.3350043,103.539684 C36.2782792,104.001588 36.30259,104.587746 36.2458649,105.103674 C36.2728768,105.23063 36.359315,105.295459 36.3836257,105.425116 C35.7623514,107.96964 35.5381525,110.957158 35.3220571,113.658351 C34.8169341,115.279067 35.1842962,116.656675 35.3220571,118.347621 C35.3166547,118.512394 35.4814274,118.501589 35.5057382,118.625844 C35.5111405,118.70688 35.4517143,118.723087 35.4625191,118.809525 C35.7056264,118.925677 35.770455,119.428098 35.5543596,119.59017 C35.5327501,120.15742 36.0513791,120.516679 36.4727651,120.786798 C36.6105259,120.940766 36.6375378,121.205483 36.934669,121.200081 C37.1885811,121.872678 37.7180149,122.523665 37.7585327,123.315114 C37.8017518,124.060644 37.7315208,125.181638 37.5316326,125.892052 C37.3101348,126.686203 36.6375378,127.256154 36.1513232,127.734265 C35.8758015,128.425771 35.3571726,128.868766 34.8196352,129.295555 C34.8223364,129.438718 34.7629102,129.517053 34.7250935,129.616997 C34.6629661,129.603491 34.689978,129.503547 34.6791732,129.436017 C34.479285,129.638606 34.3928468,129.711538 34.2199705,129.89522 C33.2124257,130.073498 31.9239568,130.424653 31.0028502,131.043226 C30.621982,130.748796 30.1627793,131.059433 29.8035207,131.272828 C29.5604133,131.267425 29.3713299,131.251218 29.3443179,131.137768 C29.2821905,131.16478 29.260581,131.235011 29.2524774,131.318748 C28.4070041,131.237712 28.1179765,131.50513 27.2292842,131.367369 C26.7619779,131.691513 26.42703,131.829273 25.7571342,131.688811 C25.6950068,131.599672 25.7112139,131.424094 25.6652937,131.318748 C25.1034456,131.429497 24.4227451,131.180987 23.9149209,131.596971 C23.0451369,131.348461 22.2374803,131.537545 21.2488438,131.502429 C20.746422,132.669344 21.9430503,133.441885 22.8128343,133.525622 C23.0073202,133.682291 23.1991049,133.849765 23.2720371,134.125287 C23.8825066,134.171207 23.7150326,134.873517 23.6853195,135.275995 C23.6691124,135.5137 23.8014708,135.732497 23.7798613,135.918879 C23.6907219,136.610384 22.9127785,137.142519 22.8614558,137.761092 C22.7777188,137.752989 22.7615117,137.815116 22.6777747,137.804311 C22.5075996,137.744885 22.4400698,137.577411 22.2590899,137.52879 C22.2536875,137.147922 22.5508187,137.050679 22.7209938,136.748145 C22.8614558,136.80487 22.6696711,136.904814 22.7209938,137.020965 C22.9316868,136.432105 23.0397345,135.783819 22.7669141,135.227374 C21.6675287,134.225231 20.325036,133.471598 19.455252,132.239855 C19.4849651,131.815767 19.3931246,131.50513 19.2742721,131.229609 C18.8825992,131.559154 18.277532,130.783912 18.0290223,131.272828 C17.8021221,131.013513 17.1619395,131.159378 16.9269358,130.908167 C16.4083068,131.008111 15.6762836,130.751498 15.2251844,130.908167 C14.811902,130.584024 14.1501098,130.827131 13.661194,130.492183 C12.7968123,130.532701 12.1242154,130.154534 11.3138576,129.803379 C11.0842563,129.843897 10.9708062,129.819586 10.8087346,129.849299 C10.2738985,129.309061 9.51756457,128.993021 8.78554139,128.652671 C7.89955023,127.148107 6.83798156,124.919623 7.63483336,122.812693 C8.52622691,121.770032 8.84496763,119.917014 10.2576913,119.546951 C10.6169499,118.985103 10.4467748,118.371932 10.4872927,117.753359 C10.5224082,117.205017 10.7033881,116.735009 10.8087346,116.186667 C10.8627585,115.892237 10.7790215,115.568094 10.8519537,115.268262 C10.8789656,115.168318 11.0113241,115.095385 11.038336,114.99274 C11.0815551,114.83337 11.0167264,114.701011 11.038336,114.530836 C11.2220171,113.209953 11.7190365,111.808034 11.7298413,110.254848 C11.7190365,110.152203 11.7649568,110.106283 11.8649009,110.114386 C11.7973711,109.676793 11.8757057,109.185176 11.9594426,108.550396 C11.740646,107.858891 12.105307,106.575824 12.189044,105.792478 C12.0945023,105.384598 12.062088,104.64177 12.189044,104.504009 C11.9621438,103.936759 12.1728369,103.391118 12.2349643,102.8968 C12.2619762,102.659095 12.1080082,102.291733 12.4213466,102.159374 C12.2187571,102.099948 12.3051953,101.454363 12.5104859,101.376028 C12.3187013,100.641304 12.6698563,100.003823 12.694167,99.3528353 C12.707673,98.9719671 12.5347967,98.2075296 12.8319278,98.1589082 C12.8130195,98.0373545 12.6590515,98.002239 12.8778481,97.9725259 C12.7589956,97.1054431 12.637442,96.3031889 12.6482467,95.1227677 C12.7373861,95.1038594 12.6833623,94.9417878 12.8319278,94.9850069 C12.8211231,94.9255807 12.7427885,94.9363854 12.7427885,94.9850069 C12.5942229,94.4015493 12.7319837,93.5479725 11.7730604,93.6965381 C11.6542079,93.6830321 11.837889,93.6155023 11.7730604,93.512857 C11.7136341,93.556076 11.6812198,93.6344106 11.6352995,93.6965381 C11.6380007,93.4696379 11.5758733,93.6263071 11.3597779,93.512857 C11.3948934,93.4696379 11.4435149,93.442626 11.4975387,93.4210164 C11.4867339,93.3534866 11.3597779,93.4048093 11.3597779,93.3264747 C11.0113241,93.6236059 10.8384477,94.0963146 10.7168941,94.6149435 C10.2090699,95.1227677 10.3117152,96.1708304 9.74986713,96.6381368 C9.77147667,96.9244632 9.56078366,96.9703834 9.56618604,97.2378015 L9.42842522,97.2378015 C9.40411449,97.7159126 9.02324634,98.2021272 8.82876047,98.6640312 C8.77473662,99.1610506 8.71260919,99.5959426 8.41547801,99.8606595 C8.30472912,100.935734 8.15886472,102.232307 7.81851446,103.310082 C7.82931923,103.358704 7.910355,103.342497 7.910355,103.401923 C7.85633115,103.53158 7.85633115,103.639628 7.910355,103.769285 C7.72397272,104.017795 7.74017987,104.682288 7.81851446,105.011834 C7.55649878,106.149036 7.60782144,107.334859 7.4025308,108.277575 C7.49977373,109.266212 7.05677816,109.919901 7.08108889,110.66543 C7.02166265,110.722155 7.01355907,110.684338 6.94332807,110.66543 C6.92712091,110.746465 6.98114476,110.754569 7.03516862,110.759971 C6.90821257,111.991715 6.82717679,113.191045 6.62188615,114.393075 C6.44900983,115.414126 6.21130489,116.427073 6.16268342,117.475136 C6.11676315,118.534004 6.43550387,119.68201 6.43820506,120.786798 C6.44360745,121.429682 6.4598146,122.450733 6.57596588,123.225975 C6.72723266,124.203807 7.03786981,125.160029 7.2215509,126.121654 C7.28097714,126.451199 7.25396521,126.813159 7.31339145,127.134601 C7.42414034,127.742369 7.61862621,128.371747 7.63483336,128.974113 C7.64563813,129.3982 7.88334308,129.835793 7.95627528,130.262582 C8.02920748,130.670462 7.910355,131.040525 8.14265756,131.367369 C8.20478499,132.563998 8.56134241,133.733614 8.96922249,134.816792 C9.19342147,135.775716 9.30146917,136.750846 9.42842522,137.712471 C9.30146917,138.077132 9.56618604,138.54984 9.42842522,138.817259 C9.18531789,139.190023 9.25014651,139.808596 9.15290358,140.243488 C8.94491175,140.400157 8.33714343,140.58654 8.0940361,140.243488 C7.86983712,139.316979 7.0783877,138.960422 6.75964697,138.125753 C6.15187865,137.201945 6.00871544,135.813532 5.3334173,134.954553 C5.30910657,134.805988 5.42255666,134.81139 5.3334173,134.724952 C4.82289191,133.609359 4.26104386,132.547791 3.9558091,131.229609 C4.01523534,131.245816 4.02604011,131.307943 4.09627111,131.318748 C3.72080535,130.875752 3.8477614,130.467872 3.67758627,130.030279 C3.54252664,130.089705 3.73161012,130.189649 3.67758627,130.308502 C2.36210549,127.191326 2.02715762,122.33188 2.34319715,118.396243 C2.01635285,116.883575 2.22704587,115.508668 2.43773888,114.071634 C2.55929255,111.205668 2.76458318,108.226253 3.08332391,105.333276 C3.13464656,104.855165 3.20757876,104.250097 3.267005,103.631524 C3.33453481,102.861684 3.267005,102.018912 3.4479849,101.42465 C3.48850279,101.292292 3.79913993,101.092403 3.54252664,100.962746 C4.00983295,99.8309464 4.02333892,98.3155773 4.41771303,97.0082001 L4.59869293,97.0082001 C4.58518697,96.9433715 4.48524284,96.9703834 4.41771303,96.9595787 C4.59599174,96.095197 4.73375256,95.6684086 4.78237402,94.8013258 C4.94984796,94.4231589 5.14163263,94.1341313 5.19835768,93.556076 C5.44146501,93.5722832 5.25508272,93.1590007 5.51979959,93.191415 C5.50359244,93.1022757 5.2983018,92.9402041 5.56842106,92.9618137 C5.53870794,92.8645707 5.44956858,92.8294552 5.47117813,92.6835908 C5.51169601,92.5377265 5.53600675,92.7673278 5.51979959,92.8213517 C5.61974372,92.5917503 5.50089124,92.1757666 5.84124151,91.9920856 C5.69267591,91.9380617 5.80342481,92.1433523 5.65756041,92.0866273 C5.89256416,91.6463329 5.93848444,91.2438552 5.97900233,90.7063179 C6.07894645,90.6982143 6.12486672,90.7468358 6.11676315,90.8467799 C6.26802993,90.749537 5.97900233,90.7117203 6.0249226,90.5685571 C6.26802993,90.3551629 6.13026911,90.0364221 6.39228479,89.8338327 C6.44630864,88.6615151 7.06758293,87.564831 6.57596588,86.1521072 C6.06814168,85.7523307 5.52520198,86.2736609 4.87691576,86.246649 C4.63921082,85.7037093 4.62570486,85.1256541 4.6446132,84.4044357 C4.72024659,84.3936309 4.72294779,84.4476547 4.78237402,84.4503559 C4.79587999,84.3963321 4.65001559,84.2936868 4.6446132,84.4044357 C4.72024659,83.8695995 4.45282853,83.2834408 4.87691576,82.8431464 C5.48738528,82.767513 6.11136076,82.9160786 6.62188615,82.7026844 C6.79746367,82.0895136 6.70562312,81.4142155 6.94332807,80.8172519 C6.77045174,80.4444874 6.36797405,80.4850053 6.11676315,80.2662087 C6.15728103,79.8448226 5.82503435,79.3018829 5.93308205,78.9318195 C5.93578324,78.9210148 6.05733691,78.9399231 6.07084287,78.9318195 C5.99520948,78.8886005 5.9519904,78.8048635 5.97900233,78.6562979 C6.06273929,78.6508955 6.07624526,78.7103218 6.16268342,78.7022182 C6.170787,78.5725609 6.21670727,78.4077882 6.30044424,78.2430154 C6.2788347,78.1727844 6.241018,78.2592226 6.16268342,78.2430154 C6.29504185,78.0053105 6.38148002,77.7243865 6.5327468,77.5055899 C6.72723266,77.5326018 6.85418871,77.4893827 6.80556725,77.2759885 C7.21344732,77.4974863 7.48356658,76.8708096 8.00489674,76.9059251 C8.29122315,77.478578 8.24800407,78.1673821 8.82876047,78.3780751 C8.95841772,78.334856 8.76393185,78.2565214 8.87468075,78.1970952 C9.78228144,77.8135258 10.4035557,77.1490325 11.0842563,76.5412641 C10.6790774,76.1657984 10.7114917,75.3500382 10.1658508,75.1123333 C10.2036675,74.8719271 10.1253329,74.6774413 10.2576913,74.4694494 C11.3786862,74.4478399 11.5650685,73.775243 12.5564062,73.6401833 C12.9642863,74.2128361 13.2911306,74.8719271 13.5666522,75.5742372 C14.6471292,75.1096321 15.5493276,74.7476723 16.832394,74.5180709 C16.9539477,74.4532423 17.0214775,74.1669159 16.8783143,74.1020873 C16.8999238,74.0345574 16.9377405,74.1209956 17.0187763,74.1020873 C16.9809596,73.97243 16.8107845,73.9751312 16.832394,73.7806453 C16.9890632,73.9616252 16.9215334,73.6752988 16.972856,73.5051237 C16.8972226,73.6563905 16.8296928,73.5294344 16.832394,73.3673629 C16.986362,73.5483428 16.9377405,73.2917295 16.9269358,73.08914 C16.9053262,73.0216102 16.8675095,73.1080484 16.7891749,73.08914 C16.8513024,72.6920647 16.55147,72.2841847 16.7891749,71.9870535 C17.6157399,72.0653881 18.4098905,72.1086071 18.9042087,71.7115318 C19.0365671,71.7790617 19.217547,71.7952688 19.31479,71.8952129 C19.0257624,72.7487898 19.2904792,73.551044 19.5011723,74.4262304 C19.8172118,74.2641588 20.3682551,74.3397922 20.7437208,74.2398481 C21.48925,73.2647176 20.6599839,71.7169342 20.8355614,70.7904252 C20.5276254,70.409557 20.7410196,69.5073587 20.465498,69.0886739 C20.5060159,68.4971127 20.6680874,68.2161887 20.7869399,67.7083645 C21.0165413,67.5111774 21.405513,67.7488824 21.5702858,67.4787631 C22.2861018,67.5084762 23.6204909,67.7677907 24.6550477,67.6165239 C24.7225775,67.4274404 24.9872943,67.4328428 25.1142504,67.295082 C24.9791908,66.9277198 25.1304575,66.5117362 24.9764896,66.1929955 C24.687462,66.1389716 24.6118286,66.1659835 24.4227451,66.284836 C23.874403,65.7635058 22.8047308,66.0930513 22.2590899,65.4555699 C22.2455839,65.3475222 22.2698946,65.2799924 22.3077113,65.2259685 C22.1132255,65.3097055 22.1537434,65.0990125 21.9862694,64.993666 C22.0483968,64.5776823 22.121329,64.4723358 22.2158708,64.0293402 C22.4535757,64.0536509 22.4886912,63.7051971 22.6777747,63.9374997 C22.7317986,63.7889341 22.5265079,63.9023842 22.5805318,63.7511174 C23.3638776,63.2486956 24.2687771,63.3999623 25.2520112,63.661978 C25.4140828,63.4566874 25.1034456,63.1298431 25.3870708,62.9272537 C25.2195969,62.946162 25.2304017,62.6733415 25.2520112,62.4194294 C25.403278,62.5301783 25.2520112,62.6733415 25.3438518,62.7867916 C25.4816126,62.6247201 25.2520112,62.4923616 25.3870708,62.3275889 C25.2358041,62.3464973 24.7766013,62.1222983 24.2849843,62.1439078 C24.2282592,62.146609 24.1715342,62.2330472 24.1931437,62.2357484 C23.6069849,62.160115 23.215312,61.6955098 22.9505952,61.4064822 C22.9586987,61.3551596 23.0343321,61.3686655 23.088356,61.3632632 C23.0505393,61.2930322 22.9397904,61.2957333 22.8614558,61.2687214 C22.9776071,61.1066499 22.7480057,60.9742914 22.7669141,60.7635984 L22.9046749,60.7635984 C22.8668582,60.6285388 22.8344439,60.7122758 22.7209938,60.7176781 C22.8452486,60.5069851 22.9370892,60.2584754 23.0424357,60.0261728 C23.0829536,60.0639895 23.145081,60.0774955 23.228818,60.0747943 C23.1991049,60.0261728 23.1180691,60.0261728 23.1342762,59.9343323 C23.2450251,59.8857108 23.3503717,59.958643 23.2720371,59.7506512 C23.3881883,59.7452488 23.4962361,59.7425476 23.5043396,59.8424918 C23.6339969,59.7884679 23.3044514,59.7101333 23.4557182,59.6128904 C23.6583076,59.620994 24.0931996,59.3454723 24.2849843,59.6128904 C24.5118845,59.523751 24.6928644,59.5669701 24.9764896,59.4751296 C25.192585,59.2671377 24.9278681,58.9835125 25.2520112,58.878166 C25.2087921,58.794429 25.0656289,58.8187398 25.1142504,58.6485646 C25.1520671,58.6836801 25.2168957,58.6971861 25.2979315,58.6917837 C25.2547124,58.6134491 25.108848,58.6350587 25.1574695,58.4621824 C25.1952862,58.4891943 25.2358041,58.513505 25.2979315,58.5108038 C25.0926409,58.3217203 25.1817802,57.8517128 25.3438518,57.5464781 C25.2385053,57.5113626 25.262816,57.349291 25.2033897,57.2682552 C25.1250552,57.2952672 24.9332705,57.2115302 24.9278681,57.3141755 C24.8603383,57.2736576 24.7820037,57.2439445 24.7928085,57.1304944 C23.9311281,57.2466457 23.0910572,56.8549728 22.6777747,56.255308 C22.6075437,56.3093319 22.5589222,56.3093319 22.4913924,56.255308 C22.4211614,56.0905353 22.6480616,56.2282961 22.6291532,56.1175472 C22.5508187,56.0311091 22.5346115,56.1310532 22.3995519,56.1661687 C22.3806435,56.0932365 22.1375362,55.9014518 22.3536316,55.8879458 C22.2563887,55.8312208 22.1591457,55.7744958 22.07811,55.7042648 C22.1699505,55.6178266 22.1024207,55.4881694 22.07811,55.3828228 C22.4076555,55.2639704 22.3860459,54.8344808 22.7209938,54.8317796 C22.7831212,54.2618279 23.8690006,54.1294695 24.4227451,54.0511349 C24.8495335,53.6621632 24.5442988,53.1381318 24.7928085,52.7599649 C24.7549918,52.7842756 24.7171751,52.8085863 24.6550477,52.8085863 C24.6307369,52.7086422 24.7171751,52.719447 24.7928085,52.7140446 C24.6982667,52.6951362 24.6442429,52.4574313 24.7928085,52.578985 C24.8009121,52.354786 24.4119403,52.5276623 24.4686654,52.2548419 C23.5610647,52.4007063 22.8533522,52.0306429 22.07811,52.1630013 C22.0429945,52.0495512 22.0619028,52.0252405 21.9376479,51.9306988 C22.1429386,50.1992343 22.1726517,48.8189249 22.0321897,47.192807 C22.0321897,47.0577474 22.0267873,46.9145842 22.1699505,46.9199866 C22.0051778,46.841652 22.1699505,46.6822816 22.0321897,46.5499232 C22.0375921,46.4986005 22.1159267,46.5121065 22.1699505,46.5067041 C21.9700623,45.9529596 22.2563887,45.6882428 22.121329,45.0345542 C22.1564445,44.9508172 22.2077672,45.0264506 22.2590899,45.0345542 C22.0321897,44.8589766 22.148341,44.4916145 22.1699505,44.205288 C22.1861577,43.9675831 22.0456956,43.6272328 22.0321897,43.3328028 C22.0051778,42.8195763 22.0889147,42.3981902 22.1699505,42.0902543 C21.9754646,41.8417446 21.9916718,41.4311633 22.1699505,41.2150679 C22.1267314,41.2339762 22.0862135,41.2555858 22.07811,41.3096096 C22.1186278,40.7018413 21.9430503,40.2318338 21.8917277,39.5160178 L22.0321897,39.5160178 C21.8512098,39.3080259 21.7269549,38.6516361 21.756668,38.0870869 C21.6891382,37.9682344 21.48925,37.9844416 21.4298237,37.8574855 C21.1461985,37.9952464 20.8733781,38.060075 20.8355614,38.3166883 C20.4979123,38.1978358 19.9549726,38.0924893 19.5011723,38.0438678 C19.1527184,38.0006487 18.655699,38.1140988 18.2613249,38.0870869 C17.9695961,38.0708797 17.8912615,38.0627762 17.6157399,38.1816286 C17.4968874,38.1843298 17.5590148,38.1465131 17.5698196,38.0870869 C17.3996445,38.2167441 17.337517,38.2167441 17.0619954,38.1816286 C16.9458441,38.214043 16.9053262,38.327493 16.9269358,38.5030706 C16.55147,38.5381861 16.3704901,38.3815169 16.2354305,38.1816286 C15.8815742,38.2383537 15.4277739,38.4490467 15.317025,38.0438678 C15.3953596,37.8574855 15.5385228,37.7413343 15.822148,37.765645 C15.8437575,37.5306412 15.2521964,37.3091434 15.3602441,36.9850003 C15.317025,36.9850003 15.3278298,37.0417254 15.317025,37.0741397 C15.1792642,36.8229288 14.3689064,36.4258535 14.3499981,35.9261329 C14.2716635,35.9288341 14.1987313,35.9261329 14.1203967,35.9261329 C14.1879265,35.7910732 14.08258,35.7694637 14.166317,35.6506112 C14.1501098,35.5884838 14.0852812,35.6452088 14.0744764,35.6965315 C13.5180307,35.072556 13.3019353,34.1082303 12.6482467,33.5787965 C12.6725575,33.543681 12.694167,33.5058643 12.694167,33.4437369 C12.5888205,33.2141355 12.3673227,33.0466616 12.2349643,32.8440722 C12.1971476,32.7846459 12.3051953,32.7522316 12.2808846,32.7063113 C12.2403667,32.6279767 12.0863987,32.6198732 12.0026617,32.5226302 C11.7973711,32.2768217 11.6488055,31.8770452 11.4516184,31.6015236 C11.1490849,31.1828387 10.8222406,30.7911658 10.5791332,30.4535167 C10.4413724,30.2617321 10.2982092,29.994314 10.071309,29.853852 C10.0578031,29.7755174 10.1091257,29.7674138 10.1658508,29.7620114 C10.1361377,29.6269518 10.0686079,29.8079317 9.9794685,29.7620114 C10.1037234,29.6026411 9.63371585,29.4513743 9.7984886,29.2568884 C9.68773971,29.1920598 9.3284811,28.8355024 9.38250495,28.6140046 C8.99623441,28.4303235 8.75312708,27.7145075 8.27771719,27.4632966 C8.29662554,27.1310499 7.98598839,26.7501817 7.72667391,26.5421899 C7.68345483,26.0829872 7.5483952,25.6426928 7.17563063,25.3482628 C7.37551888,25.2753306 7.05947935,25.1807889 7.26476998,25.1186614 C7.15942347,25.0160161 6.9325233,24.8431398 6.90010899,24.7026778 C6.88660302,24.6486539 6.97033999,24.5757217 6.99194953,24.6108372 C6.8217744,24.3056025 6.4598146,24.1840488 6.39228479,23.6897306 C6.08975122,23.3925994 5.89526536,22.9090859 5.79532123,22.4958035 C5.48738528,22.2553973 5.60353656,21.8069994 5.28749703,21.5314777 C5.30640538,21.4693503 5.371234,21.4585455 5.38203877,21.3937169 C5.24157676,21.2856692 4.98766466,20.9642273 5.01197539,20.6562913 C4.99306704,20.5887615 4.95525035,20.6724985 4.87691576,20.6562913 C4.54466908,19.3354082 3.95851029,18.5601659 3.49390517,17.3446293 C3.49660637,17.2230756 3.47769802,17.0826136 3.54252664,17.0231874 C3.31562647,16.6612275 2.62952356,15.3808623 2.7591808,14.9972929 C2.32698999,14.521883 2.30538045,13.4765215 2.0703767,12.8363389 C2.04876716,12.7688091 2.01095046,12.852546 1.93261588,12.8363389 C1.93261588,12.3177099 1.67330139,11.8504036 1.61117396,11.4560295 C1.24921416,10.9698148 1.35456067,10.2918155 1.01150922,9.75427818 C0.957485364,9.61111498 1.08174022,9.64352929 1.10334976,9.57059709 C0.671158953,9.27886829 0.943979401,8.8412751 1.10334976,8.60357015 C0.91156509,8.60086896 0.817023351,8.49822364 0.644147027,8.37396879 C0.544202903,7.78781 1.16547719,7.91476605 1.15197123,7.40964304 C1.58956442,7.12871902 2.07848027,6.89911765 2.39181861,6.48853638 C3.69649462,5.92398714 4.92283604,5.29460927 6.16268342,4.92724709 C7.30258668,4.43833123 8.5640436,3.71981401 9.88762795,3.27141605 C9.94705419,3.24980651 9.98216969,3.20928862 9.9794685,3.13365523 C10.589938,3.16877073 10.8519537,2.69876323 11.543459,2.62583103 C11.5866781,2.59341672 11.61369,2.54209406 11.6352995,2.48807021 C12.5618086,2.43134516 13.3640628,2.20714618 14.2554563,2.07208655 C14.7011531,2.00725793 15.2386904,1.89921023 15.4547858,1.93702693 C15.5115109,1.83438161 15.6141562,1.74794345 15.9139885,1.70742556 C16.3758925,1.63719455 17.2834932,1.4021908 17.8912615,1.33736218 C18.6502966,1.25902759 19.441746,1.26442998 20.0062953,1.01592026 C21.2893617,0.894366599 22.6561652,0.343323317 24.1013032,0.464876982 C25.9732296,0.116423143 28.3043588,0.370335243 29.8953612,0.418956709 C31.8726342,0.475681753 33.8445047,0.378438821 35.643499,0.83223917 C36.8941511,0.907872562 38.9227467,1.12666916 40.2004108,1.65880409 C40.2112156,1.66420648 40.1869049,1.74524225 40.2004108,1.75064464 C40.6488088,1.95593527 41.2214616,1.98834958 41.6266405,2.16662829 C41.7806085,2.23415811 41.9318752,2.33410223 42.223604,2.35030939 C42.812464,2.3827237 43.4094276,2.8176157 44.0171959,2.94997413 C44.3332354,3.01750395 44.6276654,2.96618129 44.8923823,3.04181468 C45.197617,3.12555165 45.4650351,3.30112917 45.856708,3.45509714 C45.9944689,3.48751145 46.024182,3.40917687 46.1322297,3.40917687 C46.2456798,3.51452338 46.4104525,3.56854723 46.5914324,3.5442365 C46.5806276,3.62257108 46.6373527,3.62527227 46.6400539,3.68469851 C47.3315592,3.84947126 47.7529452,4.28976564 48.2958849,4.60310398 C48.3931278,4.58149444 48.3823231,4.6679326 48.3850243,4.74356599 L48.3850243,4.74356599 Z M1.33295113,9.57059709 C1.38967617,9.57870067 1.46260837,9.5651947 1.47341314,9.61651736 C1.55174773,9.96767239 1.84347652,10.4538871 1.88399441,11.1345876 C2.08388266,11.1724043 1.94612184,11.4479259 2.16221724,11.54787 C2.1406077,11.7639654 2.25405779,11.8450012 2.16221724,12.009774 C2.42693411,12.7201876 2.76458318,13.3360595 2.7591808,14.1248077 C3.20757876,14.8730381 3.43988132,15.8346626 3.86396855,16.6072037 C3.99902818,17.3716412 4.17730689,17.8470511 4.50685238,18.449417 L4.50685238,18.6790184 C5.18755291,19.3137986 5.30370419,20.6616937 5.79532123,21.3450954 C5.80882719,21.4990634 5.83043674,21.6449278 5.93308205,21.7151588 C5.87365582,21.7448719 5.84664389,21.8124018 5.84124151,21.8961387 C6.40849194,22.3418355 6.44630864,23.3196672 6.99194953,23.7815711 L6.99194953,24.0138737 C7.05947935,24.0678975 7.17833182,24.0705987 7.2215509,24.1516345 C7.77529538,25.2996413 8.32633866,26.4476482 8.96922249,27.5092169 C9.48785146,27.6955991 9.56618604,28.3222758 9.9794685,28.6140046 C9.94975538,28.7139487 10.1091257,28.759869 9.93624942,28.7517654 C10.4386712,29.4459719 10.6898821,29.9564973 11.2706385,30.499437 C11.2652362,30.5561621 11.2085111,30.5615644 11.2220171,30.6344966 C12.0404784,31.3989341 12.5158883,32.5010207 13.2911306,33.3059761 C13.4207878,33.8678241 13.844875,34.1352422 13.9340144,34.7295046 C14.236548,34.9050821 14.4283326,35.1887073 14.5363803,35.5587707 C14.8362127,35.6695196 14.9280533,35.9909615 15.0847224,36.250276 C15.5061085,36.3826344 15.808642,36.8229288 15.8680683,37.1686814 C16.0868649,37.2091993 16.3083627,37.2497172 16.2813507,37.5360436 C16.4326175,37.554952 16.5784819,37.5765615 16.6027926,37.7224259 C17.3672301,37.7953581 18.3126475,37.4631114 19.31479,37.5360436 C19.7739927,37.5684579 20.0603191,37.4901233 20.465498,37.4901233 C20.9679198,37.4928245 21.5216643,37.3577649 21.756668,37.1686814 C21.7647716,37.2227053 21.8268991,37.2173029 21.8917277,37.2146017 C21.8782217,37.3199482 21.8998313,37.3928804 21.9376479,37.4442031 C22.064604,37.4306971 22.1537434,37.387478 22.2158708,37.3064423 C22.2131696,37.4955257 22.2969066,37.5927687 22.3536316,37.7224259 C22.2239744,37.8142665 22.2969066,37.9358201 22.1699505,37.9520273 C22.1051219,38.2788716 22.4238626,38.6381302 22.2158708,38.916353 C22.345528,39.6564798 22.3752411,40.1048777 22.5400139,41.0313868 C22.4481733,41.0178808 22.442771,41.0935142 22.3995519,41.1232273 C22.7344998,41.8471469 22.4076555,42.8790025 22.5805318,43.4705637 L22.442771,43.4705637 C22.6237509,43.7784996 22.6561652,44.4646025 22.5400139,44.9400124 C22.78042,45.7881869 22.2861018,46.6795804 22.6291532,47.1495879 C22.4238626,47.4035 22.5805318,47.6493086 22.6291532,48.0220731 C22.3698388,48.9053631 22.807432,49.8426769 22.3995519,50.8745325 C22.5292091,51.1014326 22.3185161,51.3823567 22.442771,51.6092568 C22.7777188,51.5903485 23.5070408,51.2229863 23.4097979,51.7010974 C24.2147533,51.6848902 24.7657966,51.7173045 25.3870708,51.6092568 C25.3519553,51.6011533 25.3357482,51.5741413 25.3438518,51.5174163 C26.7862886,51.7632248 27.9721121,51.8415594 29.3929394,51.7956391 C29.4226525,51.555233 29.7819111,51.6362688 29.9412815,51.5174163 C30.1573769,51.7335117 30.4004842,51.6470735 30.7246273,51.7010974 C30.7867548,51.6740855 30.7327309,51.5255199 30.8164679,51.5174163 C31.0676788,51.6686831 31.4404434,51.6794878 31.645734,51.471496 C31.65924,51.3823567 31.5809054,51.3796555 31.5538934,51.3364364 C31.7510805,51.2689066 31.7240686,51.2121815 31.5971125,51.106835 C31.7888972,51.1014326 31.6862519,50.404525 31.9671759,50.4153297 C31.9779807,50.3369951 31.8186103,50.16682 32.010395,50.1857284 C32.0184986,49.956127 31.856427,50.3315928 31.8294151,50.0938878 C31.8456222,49.9885413 32.010395,50.0317604 32.0563153,49.956127 C31.9536699,49.969633 31.8861401,49.942621 31.8753354,49.8642864 C31.9050485,49.7832507 32.0157974,49.7859519 32.0563153,49.7238244 C32.0455105,49.5833624 31.9293592,49.2349086 31.9671759,48.9431798 C31.9860843,48.791913 32.1346498,48.7405903 32.150857,48.664957 C32.1400522,48.7162796 32.1454546,48.4947818 32.150857,48.4353556 C32.1616618,48.2516745 31.8483234,47.627699 32.150857,47.4710298 C32.0887296,47.4683287 32.0482117,47.4926394 32.010395,47.5169501 L32.010395,47.2414285 C32.06712,47.2468309 32.1157415,47.3224643 32.150857,47.2414285 C31.8186103,46.968608 32.1670642,46.0529038 32.0563153,45.7692785 C32.1184427,45.7719797 32.1211439,45.8287048 32.1967773,45.8151988 C32.207582,45.6504261 32.0563153,45.6450237 32.0563153,45.4937569 C32.1346498,45.4964581 32.1778689,45.4586414 32.1967773,45.3992152 C32.0860284,45.2371436 32.1400522,44.9238053 32.1967773,44.6644908 C32.1589606,44.7698373 32.2453987,44.9724267 32.2886178,44.8481719 C32.1562594,44.5456383 32.137351,44.3484512 32.150857,43.7920056 C32.1778689,43.8028104 32.3264345,43.9081569 32.3345381,43.7920056 C32.2291916,43.7163722 32.094132,43.4030339 32.3345381,43.3760219 C32.2670083,43.2409623 32.2102832,43.1032015 32.2426975,42.8708989 C32.3210321,42.8546918 32.3588488,42.9384287 32.3777572,42.8708989 C32.221088,42.6710107 32.2426975,42.3819831 32.3777572,42.1820948 C32.3210321,42.114565 32.0779248,41.7174897 32.3777572,41.7228921 C32.1886737,41.5365098 32.2048809,41.3879442 32.1967773,40.9881677 C32.2535023,40.9881677 32.2589047,41.0448928 32.3345381,41.0313868 C32.2291916,40.8909248 32.1913749,40.682933 32.150857,40.4803435 C32.221088,40.3506863 32.3561476,40.5775864 32.3345381,40.388503 C32.2426975,40.2966624 32.291319,40.2966624 32.1967773,40.388503 C32.1454546,40.2156266 32.2940202,40.2399374 32.3345381,40.1589016 C32.0617176,40.1967183 32.2589047,39.9103919 32.3345381,39.8806788 C32.1562594,40.0184396 32.1427534,39.7510215 32.150857,39.6051571 C32.1616618,39.3431414 32.1994785,38.5922099 32.1967773,38.2734692 C32.06712,38.187031 31.9185544,38.1195012 31.8753354,37.9520273 C32.0076938,37.9169118 31.9455664,37.6846092 32.1049367,37.6738044 C32.6802907,37.6359877 33.3744972,37.6008722 33.9903691,37.5360436 C34.6143446,37.4739162 35.4436107,37.471215 35.783961,37.3064423 C35.9163194,37.2416136 36.00816,37.0417254 36.1054029,36.9850003 C36.0756898,37.0012075 36.1432196,37.0714385 36.1513232,37.0741397 C36.3214983,37.12006 36.7644939,36.4906821 36.794207,36.3880368 C37.1966847,36.3556225 37.172374,35.9045233 37.4857123,35.788372 C37.8638793,34.9374964 38.8201014,34.0325969 39.1874636,33.1655141 C39.4467781,33.122295 39.4089614,32.7738411 39.6493675,32.7063113 C39.7736224,32.5226302 39.922188,31.9769893 40.2922514,31.7852047 C40.3057573,31.509683 40.4219086,31.2206554 40.7028326,31.0964006 C40.5623706,30.8154765 41.0458841,30.5723692 41.1215175,30.4535167 C41.2484735,30.2401225 41.1782425,29.7647126 41.4429594,29.9483937 C41.5834214,29.6404578 41.6374453,29.3946493 41.9480824,29.3973505 C41.9804967,29.2703944 41.8562419,29.3001075 41.8535407,29.2109682 C41.9967039,29.1056217 42.2425124,28.8625143 42.2695243,28.7976857 C42.4964245,28.2466424 43.2554596,27.328237 43.6471325,26.7744925 C43.6525349,26.8285163 43.6633397,26.8825402 43.7416743,26.866333 C43.7308695,26.4044291 44.1225424,26.220748 44.3386378,25.8993061 C44.6681833,25.4049879 44.930199,24.7945183 45.3975053,24.2893953 C45.4839435,24.4163514 45.3137683,24.1678417 45.5352661,24.2434751 C45.5838876,23.8842164 46.0430903,23.5897865 46.2699905,23.2764481 C46.4050501,23.0954682 46.4401656,22.7875323 46.5914324,22.8658669 C46.5401097,22.8550621 46.5212014,22.811843 46.5022931,22.7713251 C46.9560934,22.5660345 47.0182208,21.9690709 47.4666188,21.7583779 L47.4666188,21.5314777 L47.6530011,21.5314777 C47.6989214,21.2775656 47.8555905,20.918307 48.0635824,20.9777333 C48.0743871,20.8912951 48.0095585,20.8750879 48.0176621,20.7940522 C48.2580682,20.8453748 48.1905384,20.4104828 48.3850243,20.5644508 C48.4525541,20.3078375 48.563303,20.0971445 48.8010079,20.0134075 C48.9225616,19.5136869 49.1548641,19.2273605 49.4465929,18.8167792 C49.4763061,18.4143015 49.9138993,17.7957284 50.1326958,17.5742306 C50.0408553,17.522908 50.2110304,17.3473305 50.3190781,17.3446293 C50.2623531,17.2176732 50.2677555,17.1015219 50.4109187,17.2068684 C50.3866079,16.9286456 50.6756356,16.6315144 50.9160417,16.4694429 C51.1807586,15.826559 51.594041,15.0999383 51.9289889,14.675851 C52.0775545,14.3030864 52.1558891,13.7925611 52.4341119,13.4819239 C52.5637691,13.3333583 52.3746857,13.5035335 52.4341119,13.3900834 C52.4935381,13.2712309 52.6799204,13.1874939 52.7555538,13.0686414 C53.0850993,12.5581161 53.3390114,11.7693678 53.7225808,11.4101092 C53.7333855,11.3020615 53.7144772,11.2345317 53.6766605,11.1805079 C53.7306843,11.112978 53.7928118,11.0535518 53.8603416,10.9968268 C53.7982141,10.3566441 54.511329,9.87042946 54.273624,8.88179299 C54.1736799,8.79805602 53.9683893,8.81696437 53.9981024,8.60357015 C53.8711463,8.61167373 53.7603975,8.61437492 53.8603416,8.51172961 C53.7144772,8.50632722 53.6550509,8.40908429 53.4929794,8.42259025 C53.5037842,8.26862228 53.2471709,8.25781751 53.3552186,8.14436742 C52.2558332,7.47987405 51.2239776,6.74785087 50.0894768,6.12117419 C50.1002815,6.03473603 50.0354529,6.01852888 50.0408553,5.9374931 C49.1980832,5.89697521 48.5687054,5.0298924 47.7880607,4.92724709 C47.7826583,4.84080892 47.7583476,4.77057792 47.6962202,4.74356599 C47.4936307,4.80569342 47.1964995,4.56798848 47.0992566,4.37350261 C46.6022372,4.33298472 46.3726358,4.02504877 45.9944689,3.86567841 C45.4029077,3.92240345 44.9653145,3.54693769 44.2467973,3.50101742 C44.2332913,3.39567091 44.3818569,3.44969476 44.3872593,3.3632566 C43.247356,3.47670668 42.3289506,2.74738469 41.2565771,2.6717513 C41.1485294,2.4178392 40.4813348,2.50427736 40.5218527,2.25846884 C40.3138609,2.28007838 40.2598371,2.17743306 40.1085703,2.25846884 C39.3522364,1.72363271 38.1204926,1.66960886 37.1156489,1.38328245 C37.0913382,1.55075639 36.6510438,1.40759318 36.6132271,1.2914419 C36.4268448,1.43190392 36.1405184,1.23741805 35.924423,1.19960136 C35.9136182,1.2563264 35.9298254,1.33195979 35.8758015,1.33736218 C33.5932938,0.743099816 30.7138226,0.978103568 28.7014341,0.878159444 C28.7689639,0.867354673 28.7068365,0.802526052 28.6528126,0.786318897 C28.2719445,0.83223917 27.213077,0.856549903 26.6755397,0.648558076 C26.1731179,0.829537978 25.3087363,0.915976139 24.6982667,0.740398623 C24.4335499,0.940286872 23.9122197,0.891665406 23.593479,0.786318897 C23.382786,0.84304394 22.9803083,1.15908347 22.6291532,1.01592026 C22.6021413,1.00781669 22.7128902,0.918677332 22.6291532,0.924079717 C22.6021413,0.92678091 22.5859342,1.03212742 22.4913924,1.06184054 C22.4616793,1.06994412 22.3077113,1.01592026 22.3077113,1.01592026 C22.275297,1.02672503 22.2590899,1.13747393 22.2158708,1.15638228 C22.0889147,1.20230255 21.9322456,1.13747393 21.756668,1.15638228 C21.4298237,1.18609539 21.0813699,1.37247768 20.7869399,1.42920272 C20.7923423,1.42920272 20.7302149,1.33466099 20.6978006,1.33736218 C20.4573944,1.3643741 20.1899764,1.57236593 19.9630762,1.56966474 C19.8361201,1.60207905 19.8685344,1.47782419 19.7766939,1.47782419 C19.7577856,1.55615878 19.8469249,1.59397547 19.7766939,1.61288382 C19.2796745,1.70742556 18.9987504,1.81007088 18.445006,1.75064464 C18.3828785,1.75064464 18.4017869,1.83438161 18.3504642,1.84248519 C17.5590148,1.63989574 16.3731913,2.32869985 15.5466264,2.25846884 C15.5088097,2.42054039 15.2819095,2.39622966 15.2251844,2.30438911 C14.8064996,2.60422149 14.1420062,2.53128929 13.661194,2.6717513 C13.6422856,2.59341672 13.7287238,2.55289883 13.661194,2.53399048 C13.6017677,2.77439662 13.1560709,2.68795846 13.0156089,2.72037277 C12.9967006,2.72307396 12.3214024,3.00669918 12.0512832,2.90135267 C12.0080641,2.8905479 11.7352437,3.12014927 11.5920805,2.94997413 C11.5866781,3.01210156 11.61369,3.04991826 11.6352995,3.08503376 C11.3840886,3.10934449 11.2301207,3.23089816 10.9491966,3.22279458 C10.8816668,3.2525077 10.9383919,3.3983721 10.8519537,3.40917687 C10.1091257,3.48481026 9.41221806,4.09527978 8.46409948,4.23574179 C8.30472912,4.44643481 8.08323133,4.56798848 7.86443473,4.51396462 C7.84822757,4.81919938 7.47276181,4.60580517 7.4025308,4.92724709 C6.46251579,5.01368525 5.74129738,5.67007504 4.8282943,5.75381201 C4.53386431,6.07255273 4.12058185,6.27244098 3.58844691,6.35077556 C3.58034334,6.40750061 3.5938493,6.483134 3.54252664,6.48853638 C3.0860251,6.60738886 2.87533208,6.94503792 2.43773888,6.99636058 C2.36750788,7.24757149 2.16491844,7.36372277 1.88399441,7.40964304 C1.96503019,7.84183385 1.28973205,7.87694936 1.33295113,8.42259025 C1.25461655,8.46310814 1.08714261,8.41988906 1.10334976,8.56035107 C1.3086404,8.7683429 1.30323801,9.18432655 1.33295113,9.57059709 L1.33295113,9.57059709 Z M8.27771719,98.8477123 C8.36145416,98.8234015 8.46950186,98.8261027 8.50731856,98.7558717 C8.36955774,98.7585729 8.44789232,98.5856966 8.41547801,98.3885095 C8.44519113,98.4020155 8.59645791,98.5019596 8.59915911,98.3885095 C8.54783645,98.3669 8.49651379,98.3371869 8.46409948,98.2939678 C8.5640436,98.1670117 8.65858534,98.0346533 8.78554139,97.9293068 C8.63427461,97.4782076 9.16911073,97.4782076 9.01514276,97.0514192 L9.15290358,97.0514192 C9.68503851,95.9007112 10.0199864,94.7364972 10.6250535,93.6046975 C10.6169499,93.2427377 10.743906,93.2940604 10.8087346,93.0050328 C9.3257799,91.6733448 8.04541463,89.8419363 7.26476998,88.3157625 C7.25396521,88.350878 7.22965448,88.3697863 7.17563063,88.3616828 C7.19183778,88.5588698 7.1486187,88.5399615 6.99194953,88.7263438 C7.09729604,89.7311874 6.42740029,90.6576964 6.39228479,91.5815043 C6.29234066,91.5706995 6.24642039,91.619321 6.25452397,91.7192651 C6.25452397,92.0677189 6.21130489,92.1541571 6.0249226,92.3621489 C6.05463572,92.7781326 5.71428546,93.1562995 5.79532123,93.556076 C5.49278767,93.6992392 5.57112225,94.1260277 5.47117813,94.4771827 C5.35502685,94.9066723 5.14703502,95.4388073 5.14973621,95.5819705 C5.17134575,96.3572127 4.88231815,96.8137143 4.73915494,97.4674029 C4.73915494,97.4674029 4.83909907,97.5241279 4.8282943,97.5592434 C4.70944182,98.0103426 4.36098798,98.4857525 4.55547385,99.0313934 C3.98282103,100.843894 3.65327553,103.291174 3.54252664,105.333276 C3.3021205,106.443466 3.1940728,107.853488 3.267005,109.241901 C3.0860251,109.21759 3.22378592,109.509319 3.08332391,109.520124 C3.2291883,110.506059 2.832113,111.564927 2.98878217,112.464424 L2.85102135,112.464424 C2.56739613,115.886835 2.7591808,119.754943 2.62412117,123.363736 C2.98337978,124.182197 2.7240653,125.59222 3.08332391,126.308036 C3.23729188,128.004385 3.88017571,129.219921 4.23133074,130.721784 C4.37179275,131.270127 4.71484421,131.615879 4.69053348,132.331695 C4.69593586,132.450548 4.87151338,132.396524 4.87691576,132.515376 C4.94984796,132.744978 5.00387181,133.001591 5.14973621,133.160961 C5.51979959,134.014538 6.07354407,134.85731 6.39228479,135.781118 C6.54085038,136.207907 6.59217304,136.677914 6.90010899,137.020965 C6.99735192,137.588216 7.2215509,137.742184 7.35931172,138.263514 C7.7671918,138.59306 8.05892059,139.036055 8.32633866,139.506063 C8.48841021,139.435832 8.53162929,139.530373 8.69370084,139.462844 C8.99083203,137.901554 8.93410698,136.167389 8.37225893,135.092314 C8.36415535,134.473741 7.89414785,133.741718 8.00489674,133.11234 C7.6942596,132.961073 7.84552638,132.310086 7.72667391,131.918413 C7.54569401,131.32415 7.45115227,130.451665 7.31339145,129.708837 C7.17292944,128.952503 7.13511274,128.217779 6.85418871,127.593803 C6.95953522,127.555987 7.08649127,127.637023 7.03516862,127.364202 C6.99735192,127.237246 6.9325233,127.504664 6.85418871,127.364202 C6.24642039,124.622492 5.97359994,121.732216 5.74940096,118.901366 C5.71428546,118.760904 5.87635701,118.812226 5.84124151,118.671764 C5.38203877,115.89764 6.60838019,113.596224 6.48412533,111.265094 C6.56516111,111.246186 6.60027661,111.335325 6.62188615,111.265094 C6.50573487,111.213772 6.48952772,111.062505 6.48412533,110.897732 C6.80016486,110.373701 6.58136827,109.590355 6.94332807,109.150061 C6.95413284,109.201383 7.02166265,109.26081 7.03516862,109.195981 C6.96493761,109.209487 7.00815669,108.982587 6.94332807,108.920459 C6.98384596,108.960977 6.92441972,109.101439 6.90010899,109.10414 C6.77585413,109.106842 7.06488173,108.353209 6.94332807,108.091193 C7.05137577,108.06148 7.10269843,107.975042 7.17563063,107.907512 C7.09729604,107.891305 7.05677816,107.975042 7.03516862,107.907512 C7.07028412,107.604979 6.99194953,107.116063 7.2215509,106.897266 C6.94873045,106.597434 7.38902484,106.054494 7.2215509,105.838399 C7.28097714,105.8411 7.28367833,105.897825 7.35931172,105.884319 C7.43224392,105.70604 7.15942347,105.868112 7.17563063,105.746558 C7.1864354,105.573682 7.21884971,105.422415 7.35931172,105.379196 C7.21884971,105.281953 7.2593676,104.990224 7.4025308,104.874073 C7.13781393,104.836256 7.34580576,104.325731 7.45115227,104.320328 C7.37011649,104.32303 7.33500099,104.285213 7.31339145,104.231189 C7.3674153,104.147452 7.4025308,104.042106 7.49707254,103.998886 C7.42954273,103.898942 7.38362245,104.055612 7.35931172,103.952966 C7.34040337,103.763883 7.45655465,103.71256 7.54299282,103.631524 C7.27827595,103.707158 7.45115227,103.30468 7.54299282,103.218242 C7.48626777,103.210138 7.41333557,103.226345 7.4025308,103.172322 C7.405232,103.075079 7.64023575,102.983238 7.54299282,102.940019 C7.54299282,102.98864 7.46195704,102.999445 7.45115227,102.940019 C7.57810832,102.553748 7.52408447,102.14857 7.81851446,101.883853 C7.79420372,101.751494 7.74558226,101.954084 7.68345483,101.929773 C7.73477749,101.783909 7.72397272,101.573216 7.86443473,101.516491 C7.74017987,101.462467 7.85633115,100.230723 8.00489674,100.549464 C7.87253831,100.357679 7.9832872,99.9389941 8.14265756,99.7661177 C8.04271344,99.601345 8.16156591,99.2907078 8.32633866,99.0313934 C8.32093627,99.1178315 8.36145416,99.1286363 8.41547801,99.0773136 C8.36685655,98.8504135 8.27771719,99.0611065 8.27771719,98.8477123 L8.27771719,98.8477123 Z M5.14973621,84.2666748 C5.02548135,84.7474871 5.20916245,85.0013992 5.19835768,85.5551437 C5.53330555,85.7631355 6.01681902,85.3552554 6.39228479,85.460602 C6.59757542,84.7799014 6.36797405,84.0856949 6.57596588,83.2078074 C5.92767967,83.105162 4.65811917,83.4509147 5.14973621,84.2666748 L5.14973621,84.2666748 Z M6.48412533,79.8070059 C6.7866589,79.8529262 6.78125651,80.3094277 7.12971035,80.1716669 C7.37551888,79.8664322 7.71316795,79.4126318 8.04811582,79.3478032 C8.02920748,79.0965923 8.24260169,79.0803851 8.32633866,78.9318195 C8.09943848,78.4996287 8.05351821,78.0944499 7.72667391,77.6433507 C6.67050762,77.7622032 6.36257167,78.7967599 6.48412533,79.8070059 L6.48412533,79.8070059 Z M6.99194953,84.634037 C7.01626027,84.8339253 6.97574238,84.9203634 7.03516862,85.0013992 C7.0756865,84.9581801 7.16482586,84.6043239 6.99194953,84.634037 L6.99194953,84.634037 Z M8.82876047,135.964799 C8.86117478,135.778417 8.78554139,135.702783 8.78554139,135.548816 C8.73151754,135.556919 8.65318296,135.543413 8.64778057,135.597437 C8.73962112,135.686576 8.75582827,135.856751 8.82876047,135.964799 L8.82876047,135.964799 Z M8.96922249,137.161427 C8.93140579,137.045276 9.05836184,136.767053 8.87468075,136.791364 C8.91519863,136.907515 8.78554139,137.188439 8.96922249,137.161427 L8.96922249,137.161427 Z M10.7168941,83.0241263 C10.7925275,83.3860861 10.7385036,83.8128745 10.6709738,84.1748343 C10.9032764,84.0613842 10.8627585,83.0781501 10.7168941,83.0241263 L10.7168941,83.0241263 Z M12.8778481,74.8395128 C12.8157207,74.7665806 12.8400314,74.6018079 12.7427885,74.56129 C12.7319837,74.6153138 12.7481909,74.6909472 12.694167,74.6990508 C12.5888205,74.5910031 12.5266931,74.4397363 12.4618645,74.2857683 C11.8621997,74.139904 11.7001282,74.6396246 11.3138576,74.56129 C11.2679374,74.7746842 11.0329336,74.8016961 10.8519537,74.8827319 C10.8789656,75.5769384 11.2409254,75.9388982 11.5920805,76.3116628 C12.2376655,76.3656866 12.4402549,75.7606195 12.9696887,75.8497588 C13.1317602,75.44458 12.8643422,75.2311857 12.7427885,74.8395128 C12.834629,74.6909472 12.8319278,74.9691701 12.8778481,74.8395128 L12.8778481,74.8395128 Z M10.9491966,119.039127 C10.9951169,119.374074 11.0842563,118.644753 11.0842563,118.671764 C11.1112682,118.353024 11.095061,117.918132 11.038336,117.753359 C10.9843121,118.104514 10.9005752,118.723087 10.9491966,119.039127 L10.9491966,119.039127 Z M11.2220171,85.4173829 C11.178798,85.3093352 11.2058099,85.1229529 11.038336,85.13916 C11.0815551,85.2526101 11.0815551,85.4065781 11.2220171,85.4173829 L11.2220171,85.4173829 Z M14.0285561,83.2537276 C14.0285561,83.3158551 13.8988989,83.3158551 13.8880941,83.2537276 C14.1203967,83.0916561 13.6719987,82.9944131 13.844875,82.7513058 C13.3235449,82.9349869 12.6833623,81.9193385 12.189044,82.3812424 C11.1274753,82.3677365 10.9654038,83.8155757 11.2706385,84.7258776 C11.4083994,84.5665072 11.9729486,84.5530013 11.8189806,84.8663396 C11.9297295,84.8852479 11.9189248,84.7826026 12.0512832,84.8177181 C12.1458249,85.1202517 12.3484144,85.0230088 12.4618645,85.2796221 C12.4564621,85.0770326 12.5942229,85.2661161 12.6482467,85.2796221 C12.8508362,85.0932398 13.2073936,85.3093352 13.2911306,84.9095587 C13.2938318,84.9716861 13.4207878,84.9689849 13.4315926,84.9095587 C13.2803258,84.7853038 13.5612498,84.7069692 13.661194,84.6799573 C13.5450427,84.1829379 14.1366038,84.3504118 14.0285561,84.0829937 C14.0609705,84.2342605 13.9367156,84.1532248 13.9340144,84.0829937 C13.9637275,83.6102851 14.0015442,83.6643089 14.0285561,83.3023491 C14.0528669,83.3023491 14.08258,83.2645324 14.0285561,83.2537276 L14.0285561,83.2537276 Z M12.6023265,104.874073 C12.694167,104.787635 12.6266372,104.655276 12.6023265,104.552631 C12.3835299,104.57424 12.5131871,104.795738 12.6023265,104.874073 L12.6023265,104.874073 Z M19.0419695,97.0082001 C19.0419695,96.9811882 19.0041528,96.9541763 18.9933481,97.0082001 C18.9204159,98.0103426 18.4936274,99.025991 18.3963845,99.8606595 C17.9804009,101.114013 17.8372376,102.129661 17.8021221,103.493763 C17.477979,103.950265 17.5590148,104.603954 17.3834373,105.103674 C17.2429753,106.167944 17.0403858,107.070142 16.7891749,107.769751 C16.6892308,108.658444 16.397502,109.771335 16.2813507,110.851812 C16.3650877,111.070609 16.3948008,111.275899 16.3731913,111.494696 C16.1651995,113.574614 16.2219245,115.668038 16.7405535,117.429216 C16.678426,117.488642 16.6973344,117.629104 16.6973344,117.753359 C16.7135415,117.872211 16.832394,117.888419 16.832394,118.026179 C16.972856,118.66096 17.3159075,120.125006 17.8021221,120.511277 C18.1748867,120.808408 18.6773085,120.568002 19.0419695,120.924559 C19.0878898,120.792201 19.104097,120.619324 19.1770292,120.511277 C19.174328,120.624727 19.1716268,120.735476 19.2742721,120.740878 C19.1770292,120.324894 19.3742162,119.530744 19.6848534,119.406489 C19.5903116,119.149876 19.8388213,118.944585 19.9171559,118.717685 C20.0062953,118.704179 20.0062953,118.777111 20.0549167,118.809525 C20.3682551,117.764164 21.5000548,117.820889 22.3077113,117.291455 C22.415759,117.032141 22.5400139,116.789033 22.8128343,116.694491 C22.877663,116.173161 23.3044514,116.019193 23.3638776,115.497863 C23.2666347,115.265561 22.9722047,115.01435 23.0424357,114.763139 C22.9559975,114.752334 22.9397904,114.814461 22.8614558,114.809059 C22.1267314,114.001403 21.5081583,113.482774 21.0192425,112.691324 C21.0300472,112.626495 21.0921747,112.61299 21.1083818,112.553563 C20.886884,112.267237 20.4303825,111.535214 20.7869399,110.992274 C20.7248125,110.989573 20.6707886,110.992274 20.6518803,110.943653 C20.3223348,110.233239 20.8463662,109.447192 20.6978006,108.782698 C20.7788363,108.755687 20.886884,108.758388 20.9274019,108.690858 C20.7626292,108.734077 20.8625733,108.509878 20.8355614,108.415336 C21.2380391,107.31325 21.9430503,106.275992 22.7209938,105.608797 C22.7128902,105.357586 23.1937025,105.192814 23.1828977,104.782232 C23.2369216,104.787635 23.285543,104.863268 23.3206585,104.782232 C23.2531287,104.768726 23.2666347,104.679587 23.228818,104.644471 C23.6421005,104.16636 23.4827301,103.261461 23.7312398,102.667199 C23.4773277,102.256617 23.7258374,101.705574 23.5502599,101.284188 C23.593479,101.284188 23.6042838,101.324706 23.6421005,101.330108 C23.3719812,101.13022 23.8095744,100.989758 23.6421005,100.779065 C23.6475028,100.892515 23.6150885,100.97085 23.5502599,101.008666 C23.6096861,100.56297 23.5205468,100.152388 23.5043396,99.7661177 C23.7420446,99.7742213 23.453017,99.6337593 23.6853195,99.5365164 C23.5988814,99.5284128 23.5826742,99.5905402 23.5043396,99.5824366 C23.5745706,99.1907637 23.299049,98.9638635 23.593479,98.6640312 C23.3476705,98.5721906 23.4773277,98.2750594 23.593479,98.1102867 C23.299049,98.085976 23.3719812,97.5457374 23.5043396,97.4674029 C23.3152562,97.4809088 23.3206585,97.413379 23.3638776,97.2837218 C22.9613999,97.2378015 22.9695035,97.202686 22.5400139,97.2378015 C22.2617911,96.8272202 22.4913924,96.0222648 22.5400139,95.3982894 C22.6075437,95.4009906 22.5724282,95.5144406 22.6777747,95.4901299 C22.513002,95.2740345 22.5346115,94.5420113 22.7209938,94.8445449 C22.7399021,94.509597 22.7777188,94.5474137 22.6291532,94.4339636 C22.6480616,94.3529278 22.6858783,94.4420672 22.7669141,94.4339636 C22.7263962,94.2962028 22.7263962,94.2908004 22.7669141,94.1557408 C22.6777747,94.1422348 22.6777747,94.2178682 22.6291532,94.2475813 L22.6291532,94.0639002 C22.6912807,94.0611991 22.7290974,94.0855098 22.7669141,94.1098205 C22.807432,93.9612549 22.6156473,94.0476931 22.6291532,93.9261394 C22.7750176,93.9882669 22.7885236,93.9396454 22.8128343,93.7883786 C22.513002,93.8397013 22.6966831,93.639813 22.6777747,93.4642355 C22.5805318,93.4237176 22.5508187,93.3183711 22.4913924,93.2346341 C22.2617911,93.4669367 22.121329,93.7883786 21.616206,93.7424583 C21.6108036,93.6749285 21.6351144,93.5722832 21.5702858,93.556076 C20.3223348,94.1017169 19.4930687,95.6657074 19.0419695,97.0082001 L19.0419695,97.0082001 Z M17.3834373,74.4262304 C17.7507995,74.3884137 18.4071893,74.4316327 18.8123682,74.4694494 C18.8258741,73.7995537 18.7718503,73.3079366 18.7205276,72.6299373 C18.782655,72.6272361 18.8204717,72.6515469 18.8555872,72.6758576 C18.8177705,72.5002801 18.7988622,72.3895312 18.7205276,72.584017 C18.4017869,72.1086071 17.8021221,72.6461445 17.2942979,72.584017 C17.1646407,73.2512116 17.3537242,73.6374821 17.3834373,74.4262304 L17.3834373,74.4262304 Z M24.5145856,97.2837218 C24.1958449,97.2999289 24.1175103,97.118949 23.8717018,97.2837218 C24.0526817,98.9206445 23.9473352,100.092962 24.1013032,101.467869 C24.0904984,101.505686 24.0634865,101.524594 24.0121638,101.516491 C24.085096,102.229605 24.1094068,102.461908 24.1472235,103.401923 C24.0931996,103.423532 24.0418769,103.450544 24.0121638,103.493763 C24.0580841,104.066416 23.8419887,104.485101 23.7312398,105.103674 C23.426005,105.425116 23.1180691,105.743857 22.8128343,106.068 C22.6615676,106.592031 22.1159267,106.718987 22.0321897,107.310549 C21.405513,107.561759 21.559481,108.507177 21.2029236,109.10414 C21.0867723,109.836164 21.1786128,110.651924 21.1083818,111.356935 C21.1921188,111.354234 21.2299355,111.39205 21.2488438,111.451477 C21.1894176,111.794528 21.4676404,112.078153 21.3893059,112.415802 C21.8323014,112.875005 22.0673052,113.544901 22.7209938,113.796112 C22.7182926,114.087841 23.0613441,114.039219 23.0424357,114.349856 C23.5475587,114.565952 23.720435,115.114294 23.9149209,115.635624 C23.4179015,116.643169 22.7480057,117.604793 21.7998871,118.026179 C21.1516009,118.020777 21.0678639,118.579924 20.465498,118.625844 C20.4249801,119.044529 20.1872752,119.266027 19.9630762,119.498329 C19.9225583,120.149317 19.5687021,120.484265 19.6389331,121.248702 C19.8037058,121.389164 19.9873869,121.510718 20.0981358,121.705204 C20.3628527,121.281116 20.4033706,120.630129 20.5141195,120.052074 C21.1434973,119.533445 21.6729311,118.741995 22.3536316,118.534004 C23.088356,118.145032 23.8338851,117.534562 24.4227451,117.153694 C24.3633189,117.153694 24.3633189,117.026738 24.4227451,117.015933 C24.4875737,117.026738 24.5010797,117.088866 24.5605059,117.107774 C24.6307369,116.41897 24.981892,115.42223 24.5145856,114.763139 C24.617231,114.690207 24.6010238,114.665896 24.5605059,114.530836 C24.3957332,114.460605 24.533494,114.687505 24.4227451,114.671298 C24.2120521,114.282327 23.6934231,114.203992 23.5502599,113.750192 C22.9019737,113.56651 22.2428827,113.215355 22.07811,112.645404 C21.9727635,112.283444 22.1807553,111.82154 21.7998871,111.586536 C21.8431062,111.000378 21.6135048,110.913939 21.8485086,110.43853 C21.8782217,110.541175 21.7593692,110.759971 21.9376479,110.897732 C21.924142,110.687039 21.8890265,110.64382 21.9862694,110.48445 C21.559481,110.335884 21.6675287,109.663287 21.9862694,109.657885 C21.8998313,109.660586 21.8782217,109.611965 21.8917277,109.520124 C22.2644922,108.939368 22.877663,108.599017 23.3206585,108.091193 C23.7123315,107.996651 23.9311281,107.523943 24.2849843,107.54015 C24.4443546,107.191696 24.9035574,107.159282 25.1574695,106.848645 C25.1412623,106.872955 25.0656289,106.824334 25.0656289,106.805426 C25.0656289,106.737896 25.2547124,106.705481 25.2979315,106.619043 C25.3735649,106.465075 25.3087363,106.119323 25.5734531,106.11392 C25.7058116,105.535865 25.8867915,104.566137 25.9408153,103.677445 C25.5896603,103.504568 25.7166163,103.072377 25.5248317,102.802258 C25.6625925,102.659095 25.4410947,102.324147 25.6193734,102.067534 C25.4410947,101.69747 25.5356364,101.008666 25.4789114,100.641304 C25.5086245,100.49544 25.7625366,100.433312 25.5734531,100.317161 C25.5626484,100.354978 25.5734531,100.411703 25.5248317,100.411703 C25.4816126,99.8768666 25.4924174,99.1934649 25.5734531,98.7099514 C25.5842579,98.7612741 25.6247758,98.7801824 25.6652937,98.801792 C25.3681625,98.3858083 25.5626484,97.6807971 25.5248317,97.2837218 C25.2222981,97.4079766 24.5659083,97.0973395 24.5145856,97.2837218 L24.5145856,97.2837218 Z M20.8355614,132.974579 C20.6410755,132.47756 20.5600397,131.988644 20.6978006,131.367369 C20.4141753,131.272828 20.2223907,131.375473 19.9171559,131.318748 C19.7388772,132.175026 20.3331396,132.645034 20.8355614,132.974579 L20.8355614,132.974579 Z M32.4263786,96.7785988 C32.3777572,96.4841688 32.4425858,95.9412291 32.150857,95.9493326 C32.1670642,95.7953647 32.1724665,95.3631739 31.9671759,95.5360502 C32.023901,95.2659309 31.6754471,95.3577715 31.8294151,95.1227677 C31.7375745,95.1092618 31.7348733,95.1848952 31.6889531,95.2146083 C31.6862519,94.9201783 31.3026825,94.9120747 31.5538934,94.7067841 C31.1757265,94.3178123 30.4977272,94.2313742 30.2627234,93.6965381 C29.9088672,93.7046416 29.7467956,93.2481401 29.3443179,93.3264747 C29.5225966,93.1698055 29.0768999,93.3021639 29.2524774,93.1427936 C28.6636174,93.0131363 28.2638409,92.6916944 27.6398654,92.6835908 C27.6776821,92.7889374 27.6830845,92.9185946 27.7344072,93.0050328 C27.1671567,93.5614784 27.4021605,94.4663779 27.3184235,95.168688 C27.283308,95.4712216 27.2157782,95.7170301 27.3184235,95.9952529 C27.2292842,95.981747 27.2292842,96.0573804 27.1806627,96.0870935 C27.4777939,96.7002642 26.8862327,97.3539528 26.216337,97.145961 C26.1650143,97.4106778 25.978632,97.6186696 26.1677155,97.8806853 C25.9678272,97.8158567 26.048863,98.0373545 25.894895,98.0184461 C26.1109904,98.858517 25.9462177,100.244229 25.9408153,100.824985 C26.1515083,100.733145 25.8975962,101.359821 25.9867356,101.69747 C26.0326559,101.870347 26.119094,101.935175 25.9408153,101.975693 C26.1055881,102.159374 25.894895,102.313342 25.9867356,102.667199 C26.0731738,103.004848 26.4702491,103.420831 26.2649584,103.631524 C26.4594443,103.942161 26.4621455,104.509412 26.4486395,104.874073 C26.4405359,105.014535 26.3649025,105.019937 26.3081775,105.103674 C26.0731738,105.452128 26.2568548,106.197657 25.8030545,106.483984 C25.7949509,106.781115 25.5032221,106.794621 25.5248317,107.126867 C25.3222422,107.137672 25.3384494,107.367274 25.2033897,107.448309 C24.7657966,107.761648 24.2282592,107.972341 23.8717018,108.369416 C23.8068732,108.369416 23.7690565,108.347806 23.7312398,108.320795 C23.3287621,108.869137 22.6966831,109.190579 22.3077113,109.749725 C22.2536875,110.903135 22.4238626,111.383947 22.5805318,112.415802 C22.653464,112.423906 22.7534081,112.399595 22.7669141,112.464424 C22.7128902,112.483332 22.6642687,112.510344 22.6291532,112.553563 C22.710189,112.640001 22.7723164,112.488735 22.8128343,112.645404 L22.8128343,112.829085 C23.2369216,113.263977 24.0526817,113.307196 24.2849843,113.933873 C25.3006327,114.293131 25.4059792,115.559991 25.1574695,116.786332 C24.9710872,117.164499 24.6388405,117.402204 24.4227451,117.753359 C23.6664112,118.112618 23.1180691,118.68527 22.2158708,118.901366 C22.2023648,119.041828 22.1159267,119.109358 22.07811,119.222808 C21.7404609,119.293039 21.5243655,119.714425 21.2947641,119.960233 C21.2029236,120.060177 21.0354496,120.106098 20.9733222,120.235755 C20.7140077,120.76789 20.9192984,121.591754 20.7869399,122.029347 C20.9976329,122.03745 21.0030353,122.245442 21.1083818,122.350789 C22.4238626,122.688438 24.0202674,122.885625 25.5734531,122.583091 C25.6598913,122.577689 25.6031662,122.429123 25.7085128,122.442629 C26.3270859,122.475044 26.8403124,122.326478 27.2752044,122.075267 C27.3346307,122.140096 27.494001,122.102279 27.5507261,122.167108 C27.7722239,122.134693 27.9937217,121.918598 28.1936099,121.891586 C28.1990123,121.891586 28.2476338,121.996932 28.2881516,121.983427 C30.2627234,121.381061 30.9110096,119.141772 31.3242921,116.786332 C31.5295827,115.608612 31.6079173,114.260717 31.6889531,113.058686 C31.8132079,111.259692 32.3210321,109.636275 32.3345381,107.769751 C32.515518,107.67521 32.3777572,107.691417 32.4263786,107.40509 C32.5479323,106.643354 32.7991432,105.368391 32.5182192,104.919993 C32.8126492,104.131245 32.6154621,102.759039 32.796442,102.110753 C32.7775337,101.951383 32.6937967,101.26528 32.7478206,101.008666 C32.7721313,100.892515 32.880179,100.843894 32.8855814,100.733145 C32.9071909,100.352277 32.7937408,99.7742213 32.796442,99.5365164 C32.8396611,99.5284128 32.9342028,99.5446199 32.9315017,99.4932973 C32.9125933,99.1637518 32.7181074,98.5478799 32.6100597,98.2507487 C32.8990873,97.7294185 32.4993108,97.2296979 32.4263786,96.7785988 L32.4263786,96.7785988 Z M21.2947641,68.5808497 C21.2758558,68.4565948 21.4676404,68.5403318 21.4784452,68.44579 C21.3163737,68.4836067 21.2407403,68.3269376 21.2029236,68.4890091 C21.2623498,68.4917103 21.2461427,68.5727461 21.2947641,68.5808497 L21.2947641,68.5808497 Z M22.6291532,134.53857 C22.8290415,134.56288 22.8884677,134.552075 22.9992166,134.58449 C22.9776071,134.78978 23.0235274,134.927541 23.228818,134.905932 C23.018125,134.379199 22.4481733,133.968618 21.9862694,133.849765 C22.0862135,134.192817 22.4940936,134.230634 22.6291532,134.53857 L22.6291532,134.53857 Z M31.3242921,55.2909823 C31.3134873,55.342305 31.2486587,55.3396038 31.1865313,55.3369026 C31.1892325,55.1640262 31.2351527,55.2045441 31.1865313,55.0586797 C30.7489381,54.8290784 30.0790423,54.5373496 29.5307002,54.2807363 C29.5388038,53.3677332 29.4334573,53.1624426 29.6198396,52.3926027 C29.4982859,52.4061086 29.5036883,52.2953597 29.4820788,52.2089216 C27.8100406,52.2089216 26.3892133,52.0306429 25.1142504,52.0711608 C25.1709754,52.1711049 25.1250552,52.1711049 25.2033897,52.3007621 C25.0305134,53.0192794 25.1871826,53.5703226 25.1142504,53.9565932 C25.2358041,53.9268801 25.2033897,54.0511349 25.2520112,54.094354 C25.1547683,54.3455649 24.95488,54.305047 24.7928085,54.3239554 C24.2282592,54.388784 23.6258933,54.6724092 23.1342762,54.8749986 C23.018125,55.188337 22.7155914,55.315293 22.5805318,55.6124242 C23.1288739,56.0770293 23.4719253,56.6280726 24.1931437,56.717212 C24.6442429,56.7712358 25.1304575,56.5281285 25.5734531,56.717212 C25.473509,56.8225585 25.530234,56.8414668 25.4789114,56.9468133 C25.8219628,57.0602634 25.7517318,57.6977449 25.5734531,57.9597605 C25.6247758,57.9651629 25.7058116,57.9489558 25.7085128,58.0029796 C25.4573018,58.4729871 25.6166722,58.9646042 25.5248317,59.8424918 C24.884649,60.0450812 24.0959008,59.7857667 23.5043396,60.1639337 C23.1964037,60.6609531 23.2477263,61.4415977 23.9635424,61.4983228 C24.239064,61.9413184 25.2195969,61.4388966 25.6652937,61.8683862 C25.6950068,62.2654615 25.7490306,62.6247201 25.8030545,62.9704727 C25.8894927,63.5377232 25.978632,64.1860094 25.4789114,64.3507821 C24.6766572,63.6916911 23.1612882,63.6808864 22.5805318,64.5344632 C22.626452,64.8342956 22.5157032,64.9747576 22.7669141,65.2718888 C23.4179015,65.4420639 24.0796936,65.56902 24.744187,65.4096496 C24.7225775,65.4825818 24.6010238,65.4474663 24.6550477,65.5933307 C24.827924,65.56902 24.9089598,65.4474663 25.1142504,65.4555699 C25.1034456,65.5230997 25.0359158,65.5339045 25.0224098,65.5933307 C25.3627601,65.6041355 25.530234,65.5636176 25.6652937,65.8229321 C25.5194293,66.3523658 25.5086245,66.8061662 25.6193734,67.4787631 C25.9002974,67.5138786 26.0110463,67.378819 26.2649584,67.3869226 C26.4216276,67.4733607 26.5269741,67.6138227 26.72146,67.6651454 C26.7403683,67.6057192 26.7808862,67.5679025 26.8592208,67.5706037 C27.1806627,67.7596871 27.3562402,67.6138227 27.6398654,67.800205 C28.1476896,67.3842214 27.5993475,66.1497764 28.2881516,65.7770118 C28.5582709,65.836438 28.4745339,66.0012108 28.4691315,66.284836 C28.7851711,66.2821348 29.4523656,66.5927719 29.7576004,66.4658159 C29.5604133,66.3955849 30.033122,66.411792 30.1249626,66.3739754 C30.6003725,66.1929955 30.8434798,65.5149961 31.0028502,65.1800482 C30.9785394,65.2340721 30.9515275,65.2853948 30.9056072,65.3151079 C30.8623882,65.0882077 30.9353204,64.9747576 31.0919895,64.9504469 C31.0217585,64.9423433 30.9218144,64.9639528 30.9056072,64.9018254 C31.1244038,64.9234349 30.9758382,64.8613075 31.0028502,64.7208455 C30.8380774,64.6479133 30.973137,64.8748135 30.8650893,64.8586063 C30.8677905,64.6668217 30.6787071,64.672224 30.7246273,64.4426227 C30.3491616,64.2832523 30.0817435,64.0131331 29.7576004,63.7997388 C29.1660392,63.6700816 28.5771793,64.1995153 28.1936099,64.0293402 C27.8127418,63.8564639 28.1044706,63.3648468 27.9640085,63.0190942 C28.0315384,63.0677157 28.0801598,63.0650145 28.1017694,62.9704727 C27.8100406,62.9110465 27.928893,62.4653497 28.1476896,62.4194294 C28.069355,62.4221306 28.0315384,62.3843139 28.0099288,62.3275889 C28.0801598,62.1628162 28.2800481,62.0493661 28.1936099,61.8683862 C28.3583827,61.8791909 28.363785,61.7279242 28.517753,61.7279242 C28.4799363,61.9197088 28.4529244,62.0169518 28.517753,62.2357484 C28.7014341,62.0817804 29.1714416,62.2141388 29.2983977,62.006147 C30.3005401,62.300577 31.8348175,61.9575255 31.5079732,60.8095187 C30.8380774,60.323304 30.4842212,60.4556625 29.4361585,60.3962362 C29.260581,60.253073 29.1957523,59.9748502 29.2524774,59.8424918 C28.9769557,59.9262287 29.1039118,59.0834566 29.2524774,59.1536876 C29.1174178,59.088859 29.1120154,58.8970744 29.1120154,58.6917837 C29.3146048,58.6242539 29.2821905,58.6431623 29.1606368,58.5108038 C29.2200631,58.3973537 29.330812,58.5594253 29.3443179,58.4621824 C29.2767881,58.4270669 29.2443738,58.3460311 29.2524774,58.232581 C29.3389156,58.1893619 29.4091466,58.3703418 29.4361585,58.232581 C29.1714416,58.0732106 29.4469633,57.8409081 29.3443179,57.4978566 C29.4253537,57.4735459 29.5334014,57.4735459 29.5739193,57.4060161 C29.2389714,57.2358409 29.3983418,56.6118655 29.6657599,56.4876106 C29.9115684,56.3741605 30.3950818,56.7145108 30.7246273,56.4876106 C30.7111214,56.3012283 30.7435357,56.3822641 30.8650893,56.39577 C31.0757824,56.0986389 31.1541169,55.9311649 31.4593517,55.7042648 C31.1217026,55.7420815 31.408029,55.3531097 31.3242921,55.2909823 L31.3242921,55.2909823 Z M26.3540978,92.4539895 C26.189325,92.3837585 26.3270859,92.6106586 26.216337,92.5917503 C26.0164487,92.5512324 25.7787438,92.6187622 25.6652937,92.4080692 C25.4194852,92.6214634 24.6118286,92.4647943 24.239064,92.5485312 C24.1391199,92.6133598 24.295789,92.6592801 24.1931437,92.6835908 C24.0067614,92.6349694 23.5637659,92.686292 23.4097979,92.8213517 C23.4665229,92.8267541 23.5205468,92.8375588 23.5043396,92.9131922 C23.3611764,92.8807779 23.3368657,92.9618137 23.228818,92.9618137 C23.1153679,93.1752079 23.3719812,93.5398689 23.3638776,93.6046975 C23.3638776,93.6046975 23.1720929,93.6857333 23.1342762,93.8342989 C23.0397345,94.2097646 23.0559417,94.31241 23.1342762,94.7067841 C23.0721488,94.7040829 23.0343321,94.7283936 22.9992166,94.7554055 C23.0235274,95.3145524 23.0289297,95.8412849 22.8614558,96.2248543 C22.9830095,96.2869817 22.9235832,96.4841688 22.9046749,96.6381368 C23.0964596,96.824519 23.3449693,96.7353797 23.6421005,96.6867582 C24.6064262,96.8110131 25.8003533,96.8272202 26.72146,96.5489974 C26.6620337,96.332902 26.8268065,96.3437068 26.9078423,96.2707746 C26.7619779,96.2923841 26.7592767,96.1735316 26.7700814,96.0411732 C26.8295077,96.0438744 26.8322089,96.1005994 26.9078423,96.0870935 C26.6350218,95.9412291 26.8754279,95.30915 26.9078423,95.3982894 C26.8970375,95.3739786 26.7403683,95.4171977 26.7700814,95.3523691 C26.8889339,95.2173095 26.9969816,95.0930546 26.9078423,94.9363854 C26.8430136,94.9958117 26.8862327,95.1632856 26.7700814,95.168688 C26.8403124,95.0120188 26.8078981,94.887764 26.8592208,94.8013258 C26.8646232,94.8553497 26.8754279,94.9093735 26.9510613,94.8931664 C26.918647,94.7527043 26.9996828,94.7229912 26.9969816,94.6149435 C26.8322089,94.5447125 26.9699697,94.7743139 26.8592208,94.7554055 C26.7133564,94.1935575 27.142846,93.3831997 26.9078423,92.8699731 C27.002384,92.8564672 26.9969816,92.7457183 27.0456031,92.6835908 C26.8024957,92.7024992 27.0672126,92.4972086 26.8160017,92.5485312 C26.764679,92.5755431 26.8241053,92.699798 26.6755397,92.7295111 C26.6323206,92.2865155 26.3540978,92.6700849 26.3540978,92.4539895 L26.3540978,92.4539895 Z M30.6327868,69.8720197 C30.4626117,69.8855257 30.5328427,70.3798439 30.5841653,70.4689833 C30.7543405,70.2528879 30.5571534,70.1043223 30.6327868,69.8720197 L30.6327868,69.8720197 Z M30.7246273,72.7217779 C30.6570975,72.4867741 30.9488263,71.7169342 30.6327868,71.5251496 C30.6543963,71.8627986 30.5355439,72.4408538 30.7246273,72.7217779 L30.7246273,72.7217779 Z M32.7478206,108.644938 C32.9612148,108.517982 32.8909838,108.12901 32.796442,107.956134 C32.8423623,108.161424 32.796442,108.418037 32.7478206,108.644938 L32.7478206,108.644938 Z M34.8196352,75.3905561 C34.6116434,75.1069309 34.9736032,74.8016961 35.0006151,74.4694494 C34.4846874,74.1885254 33.7013415,73.7698406 33.1178839,73.6888048 C32.8477647,74.2128361 32.9855255,74.6720389 32.7478206,75.2987156 C33.4285211,75.4796955 33.9579548,75.7201016 34.5414124,75.8497588 C34.6413565,75.6795837 34.6737708,75.2446917 34.8196352,75.3905561 L34.8196352,75.3905561 Z M33.020641,106.297601 C32.9693183,106.354326 32.9720195,106.462374 32.9801231,106.575824 C33.1259875,106.637952 33.0962744,106.297601 33.020641,106.297601 L33.020641,106.297601 Z M33.7607678,84.4962762 C33.7904809,84.3963321 33.6284093,84.3504118 33.806688,84.3585154 C33.6500189,84.1910415 33.876919,84.128914 33.7121463,84.0370735 C33.6365129,84.1883403 33.6770308,84.5124834 33.7607678,84.4962762 L33.7607678,84.4962762 Z M35.4165988,82.7513058 C35.138376,82.7134891 34.7899221,82.9403893 34.5900339,83.3023491 C34.2118669,83.9695437 34.1038192,85.3903709 35.0951569,85.460602 C35.0600414,85.6037652 35.1410772,85.6307771 35.1410772,85.7388248 C35.9190206,85.8927928 36.4727651,85.6929045 36.8887487,85.2796221 C36.9103583,85.3336459 36.9373702,85.3822674 36.9778881,85.4173829 C37.4262861,85.0662278 37.8071542,84.3179975 37.7180149,83.7156316 C37.5667481,83.6589065 37.6801982,83.8641972 37.5316326,83.8074721 C37.5073218,83.6589065 37.5451385,83.5751695 37.6234731,83.5319505 C37.5262302,83.3914885 37.3155372,83.5697672 37.3479515,83.2537276 C36.7050677,82.9187798 36.2242554,82.907975 35.643499,82.6108438 C35.4652203,82.5514176 35.5327501,82.7459034 35.4165988,82.7513058 L35.4165988,82.7513058 Z M34.5414124,115.084581 C34.5792291,115.243951 34.4738826,115.262859 34.4927909,115.406023 C34.7142887,115.430333 34.619747,115.146708 34.5414124,115.084581 L34.5414124,115.084581 Z M34.633253,114.209394 C34.5819303,114.266119 34.5414124,114.574055 34.633253,114.622677 C34.6521613,114.530836 34.746703,114.282327 34.633253,114.209394 L34.633253,114.209394 Z M40.2436299,136.610384 C41.0620912,135.538011 41.2889914,134.10908 41.9940027,133.06642 C41.9723931,132.861129 42.0237158,132.731472 42.0858432,132.609918 C42.1371659,132.604516 42.1560742,132.674747 42.1749826,132.609918 C42.0750385,132.547791 42.3613649,131.780652 42.4964245,131.964333 C42.3505601,131.578062 42.672002,131.386278 42.7773485,131.089147 C42.8610855,130.846039 42.8178664,130.55431 42.9151093,130.262582 C42.9718344,130.073498 43.1366071,129.89522 43.1879298,129.803379 C43.2635632,129.671021 43.2257465,129.460328 43.2797703,129.295555 C43.3608061,129.060551 43.5201765,128.87687 43.6012122,128.698591 C43.7119611,128.46899 43.6363278,128.209675 43.695754,127.963867 C43.7443755,127.758576 43.8956422,127.628919 43.9253554,127.456043 C43.9415625,127.339891 43.8686303,127.248051 43.8794351,127.134601 C43.906447,126.869884 44.0901281,126.648386 44.1549567,126.351255 C44.3494426,125.481471 44.4331796,124.514444 44.5223189,123.593337 C44.7249084,121.510718 45.197617,119.390282 45.0733622,117.153694 C45.2030194,116.888977 45.1625015,116.19207 45.0733622,115.911146 C45.2786528,115.557289 45.1679039,115.189927 45.1679039,114.809059 C45.1570992,112.669715 45.1760075,110.857214 45.2138242,109.0123 C44.8653704,106.943186 44.5763428,105.019937 44.4763986,102.98864 C44.354845,103.018354 44.3872593,102.894099 44.3386378,102.848178 C44.4601915,101.192347 44.4007652,99.3123174 44.3872593,97.4674029 C44.3818569,97.1945824 44.4385819,96.8974512 44.3872593,96.5489974 C44.3062235,96.0330696 44.0280007,95.6251895 44.200877,95.2578274 C43.7848933,94.733796 43.8443196,93.8802192 43.8308136,93.0995745 C43.6363278,93.0131363 43.6471325,92.3864597 43.7416743,92.1784678 C43.6930528,91.5166757 43.4256347,90.8629871 43.3256906,90.1984937 C43.3040811,90.0472269 43.4418419,89.8824542 43.2365513,89.7852112 C43.0096511,89.9148685 42.8070616,89.8905577 42.6368865,90.1552746 C42.7233247,90.1525734 42.7341294,90.1876889 42.6828068,90.2471152 C42.4451018,90.2795295 42.307341,90.7846525 41.9940027,90.889999 C42.0021063,91.1520147 41.7508953,91.4923649 41.4429594,91.5815043 C40.9756531,92.418874 39.9032796,92.6511765 39.3252244,93.3750961 C39.6007461,93.4075105 39.711495,93.5992951 39.8762677,93.7424583 C39.7141962,93.8424025 39.9383951,94.088211 40.1085703,94.2016611 C40.1652953,94.8256365 40.3192633,95.3253572 40.6596136,95.8574921 C40.5758766,96.6570451 41.0296769,97.1378574 40.8432946,97.7888448 C40.9000197,97.8563746 41.0350793,97.8428686 41.0242745,97.9725259 C41.213358,99.6229545 41.1674378,101.627239 41.2565771,103.172322 C40.989159,104.395962 41.4321546,105.606096 41.072896,106.805426 C41.2997962,107.129569 41.0404817,107.864293 41.2565771,108.091193 C41.2106568,108.188436 41.2376688,108.26407 41.1215175,108.369416 C41.4402582,108.615225 41.1512306,108.904252 41.1215175,109.241901 C41.0215734,110.292665 41.2052545,111.886369 40.9351352,112.645404 C41.0891032,114.703713 40.9486412,116.680986 40.8432946,118.947286 C40.581279,119.698218 40.6028885,120.667946 40.6136933,121.340543 C40.4084026,121.661985 40.4705301,122.153602 40.3813907,122.53447 C40.2976538,122.893728 40.1436858,123.171951 40.1085703,123.501497 C40.0788572,123.768915 40.1869049,124.05254 40.1544905,124.373982 C40.1112715,124.749448 39.8654629,125.022268 39.7844272,125.386929 C39.754714,125.527391 39.8573594,125.68406 39.8330486,125.848833 C39.7385069,126.448498 39.3414316,126.988736 39.5089055,127.685644 C39.2549934,127.958464 39.3927542,128.306918 39.3252244,128.652671 C39.2684994,128.938997 39.0983243,129.190208 39.0497028,129.479236 C38.9524599,130.068096 39.0091849,130.654255 38.8660217,131.272828 C38.8255038,131.375473 38.6931454,131.378174 38.6823406,131.502429 C38.7282609,131.740134 38.5850977,132.015656 38.6364203,132.285775 C38.5175679,132.366811 38.4203249,132.466755 38.3608987,132.609918 C38.3825082,133.228491 37.9179031,133.81465 37.7180149,134.217128 C37.677497,134.346785 37.7801423,134.33598 37.7585327,134.446729 C37.5019195,134.962657 37.4316884,135.427262 37.1156489,135.918879 C37.1885811,136.596878 36.5105818,136.953436 36.5673068,137.669252 C36.148622,138.101442 36.30259,138.860478 35.8758015,139.233242 C35.9352278,139.238645 35.981148,139.244047 35.9676421,139.322382 C35.8109729,140.151648 35.546256,141.145686 35.4165988,141.99116 C35.5381525,141.958745 35.503037,142.085702 35.5543596,142.128921 C36.6726533,141.669718 37.523529,140.943097 38.1285961,139.967967 C38.2609546,140.046301 38.4203249,139.892333 38.2663569,139.827505 C38.5823965,139.530373 38.7957907,138.930709 39.0037825,138.909099 C38.9578622,138.566048 39.5170091,138.225697 39.417065,137.942072 C39.5224115,137.920463 39.5170091,137.717873 39.6493675,137.850232 C39.5737341,137.661148 39.7033914,137.396431 39.8762677,137.436949 C39.8654629,137.250567 40.1869049,136.818376 40.3354704,136.791364 C40.2760442,136.764352 40.2490323,136.694121 40.2436299,136.610384 L40.2436299,136.610384 Z M36.6132271,98.8477123 C36.5456973,98.9503576 36.4700639,99.0935208 36.6132271,99.1691542 C36.6510438,99.0340945 36.6510438,99.0286922 36.6132271,98.8936325 C36.6348366,98.8936325 36.6618486,98.8558158 36.6132271,98.8477123 L36.6132271,98.8477123 Z M37.6234731,84.7717979 C37.7018077,84.7907062 37.6126684,84.8312241 37.6234731,84.9095587 C37.537035,84.8987539 37.523529,84.9635825 37.4370908,84.9581801 C37.5316326,85.1607696 37.2858241,85.2580125 37.3938718,85.3255423 C37.5694493,85.1445624 37.9908353,84.1586271 37.6234731,84.7717979 L37.6234731,84.7717979 Z M37.8989948,84.128914 C37.9341103,83.9614401 38.0772735,83.4617195 37.8071542,83.3023491 C37.9287079,83.6426994 37.8341661,84.0964997 37.8989948,84.128914 L37.8989948,84.128914 Z M40.9351352,78.334856 C41.0809996,77.8837568 41.4132463,77.5299006 41.6266405,77.0004669 C41.0458841,76.6331047 40.2490323,76.2765473 39.6925866,76.0334399 C39.6628735,76.1441888 39.627758,76.2414318 39.6493675,76.4035033 C39.2333839,76.5574713 39.2117743,77.100411 39.0956231,77.5515101 C39.5251127,77.4731756 39.8546582,78.0053105 40.3813907,77.8270318 C40.4057015,78.0080117 40.7433505,78.124163 40.5218527,78.1484737 C40.6866255,78.2430154 40.7703624,78.3564655 40.9351352,78.334856 L40.9351352,78.334856 Z M43.8794351,79.7151654 C43.695754,79.8043047 43.625523,79.3829187 43.3743121,79.3910223 C43.1366071,79.5990141 42.9151093,79.8205119 42.7287271,80.0798264 C42.9880415,80.0717228 42.7800497,80.158161 42.7773485,80.2662087 C42.882695,80.3877623 42.9880415,80.3742564 42.9151093,80.5876506 C43.4418419,80.7659293 43.5039693,81.4061119 43.9253554,81.6924383 C44.3305342,81.6357133 44.4790998,81.3250761 44.7978405,81.1846141 C44.7222072,80.4931088 44.0009887,80.2121848 43.8794351,79.7151654 L43.8794351,79.7151654 Z M45.856708,86.4303301 C46.010676,86.0143464 45.6892341,86.106187 45.9944689,85.7847451 C45.8432021,85.6037652 45.9674569,85.2337018 45.8107878,84.9581801 C45.1354896,84.8096145 44.1387496,84.7501883 44.3386378,85.6929045 C44.271108,85.7469284 44.284614,85.8846892 44.1549567,85.8765856 C44.1657615,86.443836 44.1792675,86.8463137 44.1090364,87.4405761 C44.5682392,87.6458667 45.00043,87.6485679 45.5811864,87.5324166 C45.5514733,87.2055723 45.9701581,86.7274613 45.856708,86.4735492 C45.9890665,86.6167124 45.99717,86.1007846 45.856708,86.4303301 L45.856708,86.4303301 Z" id="Fill-1"></path>
                    <path d="M13.4315926,8.97363353 C13.7395285,9.01955381 14.0609705,8.83587271 14.1203967,8.78995244 C15.0739177,8.67650235 16.4218127,8.36316402 17.4806802,8.19028769 C17.9020663,8.01471018 18.4882251,7.84453505 18.9933481,7.77700523 C19.077085,7.76620046 19.5281842,7.82292551 19.7766939,7.77700523 C20.1278489,7.71217661 20.3925658,7.53659909 20.7437208,7.54740386 C20.8517685,7.55280625 20.9625174,7.59872652 21.0651628,7.59332414 C21.2110271,7.58251937 21.335282,7.46636809 21.4784452,7.45556332 C21.629712,7.44205735 21.8268991,7.54740386 21.9862694,7.54740386 C23.5718694,7.56361102 25.3519553,7.2448703 26.6755397,7.36372277 C28.0396419,7.03687847 30.1249626,7.45016093 31.5538934,7.3178025 C32.5587371,7.56361102 33.6878356,7.3907347 34.8628543,7.50148359 C35.5219453,7.56631221 36.1378172,7.67165872 36.8428285,7.77700523 C37.2209954,7.83373028 37.607266,7.78781 37.9908353,7.86884578 C39.0956231,8.09844715 40.4570241,8.39287713 41.7157798,8.60357015 C42.0345206,8.51713199 43.0771809,8.73592859 43.050169,8.83317152 C44.0171959,8.72782501 44.6330678,9.4220315 45.5352661,9.52467682 C46.1781499,10.0189951 47.161384,10.172963 47.4206985,10.9509065 C46.9885077,12.1988574 46.5752253,13.5656609 46.0403891,14.5407914 C45.3812981,15.1026394 45.1625015,16.1939212 44.4763986,16.8854265 C44.481801,17.0556017 44.5277213,17.0150838 44.4763986,17.1609482 C44.3170283,17.1852589 44.3035223,17.355434 44.1549567,17.3905495 C43.8308136,18.154987 43.3148858,18.7276399 42.9583284,19.459663 C41.9831979,20.6346818 41.2673819,22.0420031 40.4759325,23.4169101 L40.4759325,23.738352 C40.3489764,23.7410532 40.3813907,23.6627187 40.2922514,23.738352 C40.2004108,24.2218655 39.8546582,24.2434751 39.8330486,24.6594587 L39.6925866,24.6594587 C39.6223556,24.986303 39.4359733,25.196996 39.1874636,25.3482628 C39.2360851,25.5184379 39.0740135,25.4779201 39.0956231,25.6237845 C38.5877989,25.9614335 38.4041178,26.6178233 37.8989948,26.9554724 C37.9989389,27.2066833 37.6531862,27.2958226 37.6234731,27.5551371 C37.1480632,27.6712884 37.2534097,28.198021 36.7482867,28.338483 C36.6699521,28.549176 36.6510438,28.8219964 36.3836257,28.8409048 C36.5186854,29.1164264 36.0594826,29.1569443 36.1054029,29.4864898 C35.6029811,29.7647126 35.4652203,30.4102977 35.0006151,30.7290384 C34.9546949,31.2314602 34.4063528,31.4340496 34.2199705,31.9256667 C33.6878356,32.1093478 33.4609354,32.6441839 33.2070233,32.9845342 C33.4447282,33.1898248 33.0530553,33.2843665 33.2070233,33.5355774 C32.9233981,33.6193144 32.1319487,33.627418 31.8753354,33.627418 C31.3350969,33.6868442 30.8002607,33.5517846 30.0358232,33.3951154 C29.9412815,33.4410357 29.8521421,33.4896572 29.7576004,33.5355774 C27.1158341,33.5463822 25.1763778,33.4599441 22.8614558,32.8440722 C22.3077113,33.0034425 21.8674169,32.6387815 21.3893059,32.5685505 C21.2299355,32.546941 21.0516568,32.5955624 20.8814817,32.5685505 C20.7788363,32.5550445 20.7518244,32.4605028 20.6518803,32.4307897 C20.1980799,32.2876265 19.6011164,32.3632599 19.1338101,32.2471086 C18.2397153,32.0202084 17.4941862,31.4826711 16.7405535,31.1423208 C15.7924349,30.3130547 14.8578223,29.4729838 14.3499981,28.198021 C14.3256873,28.0980768 14.4391374,28.1331923 14.4418386,28.0602601 C14.3364921,28.1521007 14.0636716,27.8360612 14.166317,27.6037586 C13.731425,27.314731 13.7368273,26.5908114 13.3856723,26.220748 C13.353258,26.06678 13.4802141,26.1451146 13.5234331,26.1748277 C13.5693534,26.0343657 13.4207878,26.093792 13.3370508,26.0829872 C13.1101507,25.294239 12.4996812,24.7458969 12.4618645,23.9220331 C12.4348525,23.8977224 12.4105418,24.0084713 12.4213466,24.0138737 C12.2079524,23.8869176 11.8081759,22.5714369 11.7298413,22.3121224 C11.4759292,22.0771186 11.2328218,21.7826886 11.3597779,21.436936 C11.0842563,21.5963063 11.2976505,21.3261871 11.2220171,21.1614143 C11.1490849,21.0803786 11.0734515,21.1938287 10.9924157,21.0695738 C10.7331012,20.1052481 10.0821138,19.1895438 10.0253888,18.308955 C9.98487089,18.3305645 9.94705419,18.3521741 9.93624942,18.4007956 C9.7606719,18.1874013 9.94705419,17.8011308 9.65802659,17.5742306 C9.80118979,17.3635376 9.1799155,16.499156 9.33658467,16.148001 C8.59645791,15.0351096 8.25340646,13.5332466 8.04811582,12.3771362 C8.01570151,12.3339171 7.96437885,12.3069051 7.910355,12.2852956 C7.95087289,12.1340288 7.88874546,11.9800608 7.95627528,11.7774714 C7.67805244,11.8504036 7.68885721,12.2177658 7.26476998,12.1475348 C7.24586163,12.1043157 7.22695329,12.066499 7.17563063,12.0556942 C7.5132797,10.9130898 8.82335809,10.9968268 9.65802659,10.397162 C9.71475163,10.3890584 9.73906236,10.4079668 9.74986713,10.4457835 C9.86331722,10.4511859 9.83090291,10.3890584 9.74986713,10.397162 C10.9329895,9.88123423 12.1809404,9.37070884 13.3856723,9.11139435 C13.436995,9.10329078 13.423489,9.02765739 13.4315926,8.97363353 L13.4315926,8.97363353 Z M17.6157399,8.60357015 C17.0214775,8.71161786 16.1814066,8.94121922 15.5898454,9.06547408 C15.5223156,9.05466931 15.3764512,8.88989656 15.317025,9.01955381 C15.3683477,9.02765739 15.4466822,9.01145023 15.4547858,9.06547408 C14.8848342,9.2032349 14.7092567,9.25185637 14.2554563,9.2032349 C14.0663728,9.52737801 13.5909629,9.45984819 13.2019912,9.57059709 C12.988597,9.63002333 12.6590515,9.90014258 12.5104859,9.892039 C12.4888764,9.892039 12.5212907,9.78669249 12.4618645,9.80289965 C12.3105977,9.84071634 12.062088,10.0784213 11.8649009,9.93795928 C11.7892675,10.2864131 11.0707503,10.2621024 10.7628143,10.397162 C10.7222965,10.4160704 10.7520096,10.5187157 10.6709738,10.537624 C10.6628702,10.537624 10.6682726,10.4268751 10.6250535,10.4457835 C10.5521213,10.4727954 10.5034999,10.6024526 10.4413724,10.6267634 C9.78228144,10.915791 9.03405111,11.1372888 8.37225893,11.54787 C8.36145416,11.6667225 8.5640436,11.8855191 8.32633866,12.0556942 C8.49921498,12.3717338 8.58565314,12.6283471 8.50731856,12.9768009 C8.58835433,12.9713985 8.62617103,13.0092152 8.64778057,13.0686414 C8.66939011,13.6169835 9.03945349,14.1788316 9.05836184,14.675851 C9.30687155,14.9972929 9.35009064,15.475404 9.65802659,15.826559 C9.72285521,16.4667417 10.2306794,17.1825577 10.1658508,17.8497523 C10.3846474,18.0172262 10.5521213,18.3656801 10.4872927,18.6790184 C10.7331012,19.0193687 10.8816668,19.2273605 10.9491966,19.781105 C11.0734515,19.7757026 11.0626467,19.9134634 11.1301765,19.964786 L11.1301765,20.2430089 C11.9864546,21.8772304 12.6212348,23.2629422 13.3370508,25.0241197 C13.4586045,25.07004 13.5720546,25.2726294 13.4748117,25.3941831 C13.8853929,25.6697047 13.9232096,26.1937361 14.1203967,26.6826519 C14.1987313,26.8717354 14.3986195,26.9959903 14.4418386,27.1877749 C14.5363803,27.6199657 14.7632805,27.7712325 14.8578223,28.1061804 C14.952364,28.4573354 15.0523081,28.6031998 15.1792642,28.8409048 C15.4980049,29.0191835 15.6654788,29.2893027 15.822148,29.7187924 C15.9085862,29.7539079 15.9923231,29.7944258 16.0976696,29.8106329 C16.5919879,30.5372537 17.4725767,30.8884087 18.1667831,31.4205437 C19.9225583,31.9553798 21.7674728,32.1444633 23.5043396,32.5685505 C23.8960126,32.5091243 24.2417652,32.6847018 24.4686654,32.7522316 C25.1250552,32.9467175 25.8867915,32.8791877 26.5377789,32.9359127 C27.9478014,33.0655699 29.3443179,33.0682711 30.5841653,32.9845342 C31.1379098,33.1195938 32.0833272,33.3275856 32.6991991,32.8926936 C32.7100039,32.8035543 32.6505776,32.7873471 32.65598,32.7063113 C32.9531112,32.3200408 33.3177722,31.9148619 33.6689272,31.6015236 C33.8337,31.4556592 33.9390465,31.2746793 34.0822097,31.1423208 C34.1308311,31.0991018 34.2253729,31.145022 34.268592,31.0964006 C34.5414124,30.7857634 34.8250376,30.1023617 35.0951569,30.0834534 C35.3598738,29.3514302 36.0810922,28.8192952 36.3836257,28.1061804 C36.6915617,27.819854 37.0589239,27.5875514 37.2101907,27.1418547 C37.4019753,27.1121415 37.4343896,26.8555283 37.5775528,26.9122533 C37.4587004,26.7663889 37.8449709,26.8123092 37.6234731,26.6340305 C38.1339985,26.1208039 38.4608428,25.4184938 39.0497028,24.9809006 C39.2928101,24.4595705 39.627758,23.9490451 40.0599488,23.5087507 C39.9546023,23.4142089 40.1220762,23.2062171 40.2004108,23.1386873 C40.2085144,23.1927111 40.2490323,23.2116195 40.2922514,23.2305278 C40.3462752,23.0846634 40.1436858,23.1981135 40.2004108,23.0468468 C40.3030561,22.9820181 40.370586,23.1656992 40.3813907,23.0468468 C40.1977096,22.9712134 40.4732313,22.9415002 40.2922514,22.8172454 C40.6947291,22.2905128 41.0404817,21.1884263 41.6725608,20.6103711 C41.7481942,20.2051922 42.110154,20.1025469 42.3154446,19.7351847 C42.3019386,19.7567942 42.223604,19.7108739 42.223604,19.6892644 C42.2398112,19.4407547 42.882695,18.9788508 42.8205676,18.6330981 C42.8880974,18.6141898 42.8989022,18.5763731 42.9583284,18.6330981 C43.0312606,18.3953932 43.1095952,18.1711942 43.3256906,18.0793536 C43.2905751,17.7525093 43.5471884,17.7173938 43.5579932,17.4364698 C43.9523673,17.2527887 43.9226542,16.6369168 44.3386378,16.4694429 C44.3440402,16.0156425 44.8194501,15.6725911 44.9815216,15.2268943 C44.9923264,15.264711 45.0220395,15.2836193 45.0733622,15.2755158 C45.0868682,15.1836752 45.013936,15.1836752 44.9815216,15.1350538 C45.3299755,14.3571103 45.9755605,14.0140588 46.1322297,12.9768009 C46.221369,12.9768009 46.1889547,12.8498449 46.3159108,12.8822592 C46.3429227,12.1799491 46.7183885,11.7693678 46.7291932,10.9968268 C46.7183885,10.634867 46.3429227,10.6726837 46.1322297,10.4890026 C45.7000389,10.1135368 45.1760075,9.821808 44.6141595,9.84611873 C44.3872593,9.60031021 44.0225983,9.48956131 43.6012122,9.43283627 C43.6363278,9.25995995 43.4526467,9.28967306 43.4202323,9.29507545 C43.471555,9.30588022 43.4877622,9.34639811 43.5093717,9.386916 C43.1987346,9.39501957 42.755739,8.99524307 42.6828068,9.2032349 C42.2263052,9.04386454 41.5699154,9.06817527 41.2106568,8.92501207 C40.7730636,9.03846216 39.6169532,8.57385704 38.9578622,8.60357015 C38.5445798,8.35506044 38.1529069,8.55764988 37.7180149,8.28212824 C37.3263419,8.26862228 36.7455855,8.27672585 36.5673068,8.09844715 C35.5084393,8.34965805 34.2469824,7.62033606 33.2070233,7.96068633 C33.1178839,7.96068633 33.1475971,7.83643147 33.020641,7.86884578 C31.1108979,7.7526945 29.611736,7.90666247 27.5048058,7.63924441 C26.8078981,7.87154697 25.8651819,7.71217661 24.9278681,7.77700523 C24.3282034,7.81752312 23.5529611,8.10114834 23.088356,8.05252687 C22.5238067,7.99850302 21.8944289,7.83643147 21.3406844,8.05252687 C21.2893617,8.02551495 21.1624057,7.83913266 21.1083818,7.96068633 C21.1624057,7.9714911 21.1840152,8.01471018 21.2029236,8.05252687 C20.381761,8.00930779 19.9063511,8.222702 19.0878898,8.23890916 C18.7556431,8.2983354 17.9993092,8.5522475 17.6616601,8.46851053 C17.6535566,8.52253438 17.6697637,8.59816777 17.6157399,8.60357015 L17.6157399,8.60357015 Z" id="Fill-2"></path>
                </g>
            </g>
        </g>
    </g>
</svg>